<?xml version="1.0" encoding="UTF-8" standalone="no"?>
<!DOCTYPE svg PUBLIC "-//W3C//DTD SVG 1.1//EN"
 "http://www.w3.org/Graphics/SVG/1.1/DTD/svg11.dtd">
<!-- Generated by graphviz version 11.0.0 (20240428.1522)
 -->
<!-- Pages: 1 -->
<svg width="2815pt" height="1329pt"
 viewBox="0.00 0.00 2814.54 1329.00" xmlns="http://www.w3.org/2000/svg" xmlns:xlink="http://www.w3.org/1999/xlink">
<g id="graph0" class="graph" transform="scale(1 1) rotate(0) translate(4 1325)">
<polygon fill="white" stroke="none" points="-4,4 -4,-1325 2810.54,-1325 2810.54,4 -4,4"/>
<g id="clust1" class="cluster">
<title>cluster_import_wasi_snapshot_preview1</title>
<polygon fill="none" stroke="blue" points="1094.98,-8 1094.98,-84.5 1711.98,-84.5 1711.98,-8 1094.98,-8"/>
<text text-anchor="middle" x="1403.48" y="-67.2" font-family="Times,serif" font-size="14.00">wasi_snapshot_preview1</text>
</g>
<g id="clust2" class="cluster">
<title>cluster_export</title>
<polygon fill="none" stroke="red" points="1261.98,-1236.5 1261.98,-1313 1331.98,-1313 1331.98,-1236.5 1261.98,-1236.5"/>
<text text-anchor="middle" x="1296.98" y="-1295.7" font-family="Times,serif" font-size="14.00">exports</text>
</g>
<!-- f0 -->
<g id="node1" class="node">
<title>f0</title>
<ellipse fill="none" stroke="blue" cx="186.98" cy="-110.5" rx="186.98" ry="18"/>
<text text-anchor="middle" x="186.98" y="-105.45" font-family="Times,serif" font-size="14.00">__imported_wasi_snapshot_preview1_args_get</text>
</g>
<!-- import0 -->
<g id="node63" class="node">
<title>import0</title>
<polygon fill="none" stroke="black" points="1164.86,-52 1103.11,-52 1103.11,-16 1164.86,-16 1164.86,-52"/>
<text text-anchor="middle" x="1133.98" y="-28.95" font-family="Times,serif" font-size="14.00">args_get</text>
</g>
<!-- f0&#45;&gt;import0 -->
<g id="edge5" class="edge">
<title>f0&#45;&gt;import0</title>
<path fill="none" stroke="blue" d="M321.23,-97.61C341.58,-95.86 362.34,-94.11 381.98,-92.5 652.02,-70.41 976.84,-46.46 1091.44,-38.09"/>
<polygon fill="blue" stroke="blue" points="1091.58,-41.59 1101.3,-37.37 1091.07,-34.61 1091.58,-41.59"/>
</g>
<!-- f1 -->
<g id="node2" class="node">
<title>f1</title>
<ellipse fill="none" stroke="blue" cx="600.98" cy="-110.5" rx="209.5" ry="18"/>
<text text-anchor="middle" x="600.98" y="-105.45" font-family="Times,serif" font-size="14.00">__imported_wasi_snapshot_preview1_args_sizes_get</text>
</g>
<!-- import1 -->
<g id="node64" class="node">
<title>import1</title>
<polygon fill="none" stroke="black" points="1277.36,-52 1182.61,-52 1182.61,-16 1277.36,-16 1277.36,-52"/>
<text text-anchor="middle" x="1229.98" y="-28.95" font-family="Times,serif" font-size="14.00">args_sizes_get</text>
</g>
<!-- f1&#45;&gt;import1 -->
<g id="edge6" class="edge">
<title>f1&#45;&gt;import1</title>
<path fill="none" stroke="blue" d="M745.8,-97.13C770.54,-95.34 795.99,-93.7 819.98,-92.5 839.63,-91.52 1155.66,-91.67 1173.98,-84.5 1187.06,-79.38 1199.1,-69.73 1208.63,-60.31"/>
<polygon fill="blue" stroke="blue" points="1210.94,-62.96 1215.28,-53.3 1205.86,-58.14 1210.94,-62.96"/>
</g>
<!-- f2 -->
<g id="node3" class="node">
<title>f2</title>
<ellipse fill="none" stroke="blue" cx="1401.98" cy="-110.5" rx="186.98" ry="18"/>
<text text-anchor="middle" x="1401.98" y="-105.45" font-family="Times,serif" font-size="14.00">__imported_wasi_snapshot_preview1_fd_close</text>
</g>
<!-- import2 -->
<g id="node65" class="node">
<title>import2</title>
<polygon fill="none" stroke="black" points="1432.86,-52 1371.11,-52 1371.11,-16 1432.86,-16 1432.86,-52"/>
<text text-anchor="middle" x="1401.98" y="-28.95" font-family="Times,serif" font-size="14.00">fd_close</text>
</g>
<!-- f2&#45;&gt;import2 -->
<g id="edge7" class="edge">
<title>f2&#45;&gt;import2</title>
<path fill="none" stroke="blue" d="M1401.98,-92.22C1401.98,-83.82 1401.98,-73.49 1401.98,-63.93"/>
<polygon fill="blue" stroke="blue" points="1405.48,-63.96 1401.98,-53.96 1398.48,-63.96 1405.48,-63.96"/>
</g>
<!-- f3 -->
<g id="node4" class="node">
<title>f3</title>
<ellipse fill="none" stroke="blue" cx="2202.98" cy="-110.5" rx="204.38" ry="18"/>
<text text-anchor="middle" x="2202.98" y="-105.45" font-family="Times,serif" font-size="14.00">__imported_wasi_snapshot_preview1_fd_fdstat_get</text>
</g>
<!-- import3 -->
<g id="node66" class="node">
<title>import3</title>
<polygon fill="none" stroke="black" points="1618.61,-52 1531.36,-52 1531.36,-16 1618.61,-16 1618.61,-52"/>
<text text-anchor="middle" x="1574.98" y="-28.95" font-family="Times,serif" font-size="14.00">fd_fdstat_get</text>
</g>
<!-- f3&#45;&gt;import3 -->
<g id="edge8" class="edge">
<title>f3&#45;&gt;import3</title>
<path fill="none" stroke="blue" d="M2062.13,-97.11C2038.07,-95.32 2013.32,-93.69 1989.98,-92.5 1969.89,-91.48 1646.61,-92.09 1627.98,-84.5 1615.48,-79.41 1604.16,-69.91 1595.22,-60.57"/>
<polygon fill="blue" stroke="blue" points="1598,-58.43 1588.72,-53.31 1592.78,-63.1 1598,-58.43"/>
</g>
<!-- f4 -->
<g id="node5" class="node">
<title>f4</title>
<ellipse fill="none" stroke="blue" cx="1012.98" cy="-110.5" rx="184.42" ry="18"/>
<text text-anchor="middle" x="1012.98" y="-105.45" font-family="Times,serif" font-size="14.00">__imported_wasi_snapshot_preview1_fd_seek</text>
</g>
<!-- import4 -->
<g id="node67" class="node">
<title>import4</title>
<polygon fill="none" stroke="black" points="1352.98,-52 1294.98,-52 1294.98,-16 1352.98,-16 1352.98,-52"/>
<text text-anchor="middle" x="1323.98" y="-28.95" font-family="Times,serif" font-size="14.00">fd_seek</text>
</g>
<!-- f4&#45;&gt;import4 -->
<g id="edge9" class="edge">
<title>f4&#45;&gt;import4</title>
<path fill="none" stroke="blue" d="M1145.67,-97.63C1214.75,-91.41 1285.13,-84.97 1285.98,-84.5 1295.49,-79.26 1303.38,-70.53 1309.46,-61.85"/>
<polygon fill="blue" stroke="blue" points="1312.34,-63.85 1314.74,-53.53 1306.43,-60.1 1312.34,-63.85"/>
</g>
<!-- f5 -->
<g id="node6" class="node">
<title>f5</title>
<ellipse fill="none" stroke="blue" cx="1793.98" cy="-110.5" rx="186.98" ry="18"/>
<text text-anchor="middle" x="1793.98" y="-105.45" font-family="Times,serif" font-size="14.00">__imported_wasi_snapshot_preview1_fd_write</text>
</g>
<!-- import5 -->
<g id="node68" class="node">
<title>import5</title>
<polygon fill="none" stroke="black" points="1512.86,-52 1451.11,-52 1451.11,-16 1512.86,-16 1512.86,-52"/>
<text text-anchor="middle" x="1481.98" y="-28.95" font-family="Times,serif" font-size="14.00">fd_write</text>
</g>
<!-- f5&#45;&gt;import5 -->
<g id="edge10" class="edge">
<title>f5&#45;&gt;import5</title>
<path fill="none" stroke="blue" d="M1659.23,-97.67C1591.65,-91.65 1523.65,-85.4 1521.98,-84.5 1512.11,-79.22 1503.78,-70.36 1497.33,-61.58"/>
<polygon fill="blue" stroke="blue" points="1500.4,-59.88 1491.92,-53.53 1494.59,-63.78 1500.4,-59.88"/>
</g>
<!-- f6 -->
<g id="node7" class="node">
<title>f6</title>
<ellipse fill="none" stroke="blue" cx="2615.98" cy="-110.5" rx="190.56" ry="18"/>
<text text-anchor="middle" x="2615.98" y="-105.45" font-family="Times,serif" font-size="14.00">__imported_wasi_snapshot_preview1_proc_exit</text>
</g>
<!-- import6 -->
<g id="node69" class="node">
<title>import6</title>
<polygon fill="none" stroke="black" points="1703.48,-52 1636.48,-52 1636.48,-16 1703.48,-16 1703.48,-52"/>
<text text-anchor="middle" x="1669.98" y="-28.95" font-family="Times,serif" font-size="14.00">proc_exit</text>
</g>
<!-- f6&#45;&gt;import6 -->
<g id="edge11" class="edge">
<title>f6&#45;&gt;import6</title>
<path fill="none" stroke="blue" d="M2478.55,-97.67C2457.59,-95.91 2436.21,-94.14 2415.98,-92.5 2150.3,-70.97 1831.22,-47.01 1715.06,-38.35"/>
<polygon fill="blue" stroke="blue" points="1715.56,-34.88 1705.33,-37.63 1715.04,-41.86 1715.56,-34.88"/>
</g>
<!-- f7 -->
<g id="node8" class="node">
<title>f7</title>
<ellipse fill="none" stroke="black" cx="835.98" cy="-1118.5" rx="82.57" ry="18"/>
<text text-anchor="middle" x="835.98" y="-1113.45" font-family="Times,serif" font-size="14.00">__wasm_call_ctors</text>
</g>
<!-- f8 -->
<g id="node9" class="node">
<title>f8</title>
<ellipse fill="none" stroke="black" cx="1296.98" cy="-1190.5" rx="31.39" ry="18"/>
<text text-anchor="middle" x="1296.98" y="-1185.45" font-family="Times,serif" font-size="14.00">_start</text>
</g>
<!-- f8&#45;&gt;f7 -->
<g id="edge13" class="edge">
<title>f8&#45;&gt;f7</title>
<path fill="none" stroke="black" d="M1266.3,-1185.52C1202.96,-1177.2 1053.16,-1157.05 927.98,-1136.5 921.51,-1135.44 914.8,-1134.29 908.07,-1133.11"/>
<polygon fill="black" stroke="black" points="908.74,-1129.67 898.28,-1131.36 907.51,-1136.56 908.74,-1129.67"/>
</g>
<!-- f17 -->
<g id="node18" class="node">
<title>f17</title>
<ellipse fill="none" stroke="black" cx="996.98" cy="-1118.5" rx="60.05" ry="18"/>
<text text-anchor="middle" x="996.98" y="-1113.45" font-family="Times,serif" font-size="14.00">__main_void</text>
</g>
<!-- f8&#45;&gt;f17 -->
<g id="edge14" class="edge">
<title>f8&#45;&gt;f17</title>
<path fill="none" stroke="black" d="M1268.22,-1182.79C1219.17,-1171.34 1118.48,-1147.85 1054.53,-1132.93"/>
<polygon fill="black" stroke="black" points="1055.44,-1129.55 1044.9,-1130.68 1053.85,-1136.36 1055.44,-1129.55"/>
</g>
<!-- f24 -->
<g id="node25" class="node">
<title>f24</title>
<ellipse fill="none" stroke="black" cx="1832.98" cy="-974.5" rx="76.43" ry="18"/>
<text text-anchor="middle" x="1832.98" y="-969.45" font-family="Times,serif" font-size="14.00">__wasi_proc_exit</text>
</g>
<!-- f8&#45;&gt;f24 -->
<g id="edge16" class="edge">
<title>f8&#45;&gt;f24</title>
<path fill="none" stroke="black" d="M1328.52,-1188.12C1392.76,-1184.62 1542.86,-1172.92 1662.98,-1136.5 1734.13,-1114.93 1767.92,-1122.86 1813.98,-1064.5 1827.45,-1047.43 1831.93,-1022.99 1833.19,-1004.03"/>
<polygon fill="black" stroke="black" points="1836.68,-1004.42 1833.56,-994.29 1829.68,-1004.15 1836.68,-1004.42"/>
</g>
<!-- f28 -->
<g id="node29" class="node">
<title>f28</title>
<ellipse fill="none" stroke="black" cx="1570.98" cy="-1118.5" rx="83.08" ry="18"/>
<text text-anchor="middle" x="1570.98" y="-1113.45" font-family="Times,serif" font-size="14.00">__wasm_call_dtors</text>
</g>
<!-- f8&#45;&gt;f28 -->
<g id="edge15" class="edge">
<title>f8&#45;&gt;f28</title>
<path fill="none" stroke="black" d="M1325.27,-1182.27C1367.96,-1171.37 1449.94,-1150.42 1507.43,-1135.74"/>
<polygon fill="black" stroke="black" points="1508.29,-1139.13 1517.11,-1133.26 1506.56,-1132.35 1508.29,-1139.13"/>
</g>
<!-- f9 -->
<g id="node10" class="node">
<title>f9</title>
<ellipse fill="none" stroke="black" cx="1076.98" cy="-1046.5" rx="29.86" ry="18"/>
<text text-anchor="middle" x="1076.98" y="-1041.45" font-family="Times,serif" font-size="14.00">main</text>
</g>
<!-- f29 -->
<g id="node30" class="node">
<title>f29</title>
<ellipse fill="none" stroke="black" cx="1112.98" cy="-974.5" rx="31.39" ry="18"/>
<text text-anchor="middle" x="1112.98" y="-969.45" font-family="Times,serif" font-size="14.00">printf</text>
</g>
<!-- f9&#45;&gt;f29 -->
<g id="edge17" class="edge">
<title>f9&#45;&gt;f29</title>
<path fill="none" stroke="black" d="M1085.51,-1028.91C1089.64,-1020.89 1094.69,-1011.07 1099.33,-1002.04"/>
<polygon fill="black" stroke="black" points="1102.36,-1003.81 1103.82,-993.32 1096.13,-1000.61 1102.36,-1003.81"/>
</g>
<!-- f10 -->
<g id="node11" class="node">
<title>f10</title>
<ellipse fill="none" stroke="black" cx="765.98" cy="-1046.5" rx="36.51" ry="18"/>
<text text-anchor="middle" x="765.98" y="-1041.45" font-family="Times,serif" font-size="14.00">malloc</text>
</g>
<!-- f11 -->
<g id="node12" class="node">
<title>f11</title>
<ellipse fill="none" stroke="black" cx="764.98" cy="-974.5" rx="43.67" ry="18"/>
<text text-anchor="middle" x="764.98" y="-969.45" font-family="Times,serif" font-size="14.00">dlmalloc</text>
</g>
<!-- f10&#45;&gt;f11 -->
<g id="edge18" class="edge">
<title>f10&#45;&gt;f11</title>
<path fill="none" stroke="black" d="M765.73,-1028.2C765.63,-1020.91 765.51,-1012.23 765.39,-1004.04"/>
<polygon fill="black" stroke="black" points="768.89,-1004.07 765.25,-994.12 761.89,-1004.17 768.89,-1004.07"/>
</g>
<!-- f12 -->
<g id="node13" class="node">
<title>f12</title>
<ellipse fill="none" stroke="black" cx="763.98" cy="-902.5" rx="63.12" ry="18"/>
<text text-anchor="middle" x="763.98" y="-897.45" font-family="Times,serif" font-size="14.00">prepend_alloc</text>
</g>
<!-- f11&#45;&gt;f12 -->
<g id="edge20" class="edge">
<title>f11&#45;&gt;f12</title>
<path fill="none" stroke="black" d="M764.73,-956.2C764.63,-948.91 764.51,-940.23 764.39,-932.04"/>
<polygon fill="black" stroke="black" points="767.89,-932.07 764.25,-922.12 760.89,-932.17 767.89,-932.07"/>
</g>
<!-- f26 -->
<g id="node27" class="node">
<title>f26</title>
<ellipse fill="none" stroke="black" cx="655.98" cy="-902.5" rx="27" ry="18"/>
<text text-anchor="middle" x="655.98" y="-897.45" font-family="Times,serif" font-size="14.00">sbrk</text>
</g>
<!-- f11&#45;&gt;f26 -->
<g id="edge19" class="edge">
<title>f11&#45;&gt;f26</title>
<path fill="none" stroke="black" d="M742.13,-958.83C725.35,-948.05 702.45,-933.34 684.48,-921.8"/>
<polygon fill="black" stroke="black" points="686.39,-918.87 676.08,-916.41 682.61,-924.76 686.39,-918.87"/>
</g>
<!-- f13 -->
<g id="node14" class="node">
<title>f13</title>
<ellipse fill="none" stroke="black" cx="996.98" cy="-1046.5" rx="27" ry="18"/>
<text text-anchor="middle" x="996.98" y="-1041.45" font-family="Times,serif" font-size="14.00">free</text>
</g>
<!-- f14 -->
<g id="node15" class="node">
<title>f14</title>
<ellipse fill="none" stroke="black" cx="996.98" cy="-974.5" rx="32.41" ry="18"/>
<text text-anchor="middle" x="996.98" y="-969.45" font-family="Times,serif" font-size="14.00">dlfree</text>
</g>
<!-- f13&#45;&gt;f14 -->
<g id="edge21" class="edge">
<title>f13&#45;&gt;f14</title>
<path fill="none" stroke="black" d="M996.98,-1028.2C996.98,-1020.91 996.98,-1012.23 996.98,-1004.04"/>
<polygon fill="black" stroke="black" points="1000.48,-1004.12 996.98,-994.12 993.48,-1004.12 1000.48,-1004.12"/>
</g>
<!-- f15 -->
<g id="node16" class="node">
<title>f15</title>
<ellipse fill="none" stroke="black" cx="854.98" cy="-1046.5" rx="32.93" ry="18"/>
<text text-anchor="middle" x="854.98" y="-1041.45" font-family="Times,serif" font-size="14.00">calloc</text>
</g>
<!-- f15&#45;&gt;f11 -->
<g id="edge22" class="edge">
<title>f15&#45;&gt;f11</title>
<path fill="none" stroke="black" d="M836.77,-1031.33C824.38,-1021.7 807.73,-1008.75 793.59,-997.75"/>
<polygon fill="black" stroke="black" points="795.97,-995.17 785.92,-991.79 791.67,-1000.69 795.97,-995.17"/>
</g>
<!-- f57 -->
<g id="node58" class="node">
<title>f57</title>
<ellipse fill="none" stroke="black" cx="844.98" cy="-686.5" rx="40.6" ry="18"/>
<text text-anchor="middle" x="844.98" y="-681.45" font-family="Times,serif" font-size="14.00">memset</text>
</g>
<!-- f15&#45;&gt;f57 -->
<g id="edge23" class="edge">
<title>f15&#45;&gt;f57</title>
<path fill="none" stroke="black" d="M854.5,-1028.23C852.9,-970.93 847.75,-786.68 845.77,-715.72"/>
<polygon fill="black" stroke="black" points="849.28,-716.01 845.5,-706.11 842.28,-716.2 849.28,-716.01"/>
</g>
<!-- f16 -->
<g id="node17" class="node">
<title>f16</title>
<ellipse fill="none" stroke="black" cx="1675.98" cy="-1046.5" rx="30.88" ry="18"/>
<text text-anchor="middle" x="1675.98" y="-1041.45" font-family="Times,serif" font-size="14.00">_Exit</text>
</g>
<!-- f16&#45;&gt;f24 -->
<g id="edge24" class="edge">
<title>f16&#45;&gt;f24</title>
<path fill="none" stroke="black" d="M1700.17,-1034.72C1723.53,-1024.3 1759.49,-1008.27 1788.1,-995.51"/>
<polygon fill="black" stroke="black" points="1789.18,-998.86 1796.89,-991.59 1786.33,-992.47 1789.18,-998.86"/>
</g>
<!-- f17&#45;&gt;f9 -->
<g id="edge29" class="edge">
<title>f17&#45;&gt;f9</title>
<path fill="none" stroke="black" d="M1015.54,-1101.26C1026.35,-1091.8 1040.13,-1079.74 1051.9,-1069.44"/>
<polygon fill="black" stroke="black" points="1054.07,-1072.2 1059.29,-1062.98 1049.46,-1066.93 1054.07,-1072.2"/>
</g>
<!-- f17&#45;&gt;f10 -->
<g id="edge26" class="edge">
<title>f17&#45;&gt;f10</title>
<path fill="none" stroke="black" d="M953.24,-1105.78C915.8,-1095.54 860.57,-1079.94 812.98,-1064.5 810.31,-1063.63 807.56,-1062.71 804.8,-1061.77"/>
<polygon fill="black" stroke="black" points="806.23,-1058.56 795.64,-1058.56 803.92,-1065.17 806.23,-1058.56"/>
</g>
<!-- f17&#45;&gt;f13 -->
<g id="edge31" class="edge">
<title>f17&#45;&gt;f13</title>
<path fill="none" stroke="black" d="M996.98,-1100.2C996.98,-1092.91 996.98,-1084.23 996.98,-1076.04"/>
<polygon fill="black" stroke="black" points="1000.48,-1076.12 996.98,-1066.12 993.48,-1076.12 1000.48,-1076.12"/>
</g>
<!-- f17&#45;&gt;f15 -->
<g id="edge27" class="edge">
<title>f17&#45;&gt;f15</title>
<path fill="none" stroke="black" d="M966.87,-1102.65C944.13,-1091.45 912.92,-1076.06 889.23,-1064.38"/>
<polygon fill="black" stroke="black" points="890.81,-1061.26 880.3,-1059.98 887.72,-1067.54 890.81,-1061.26"/>
</g>
<!-- f17&#45;&gt;f16 -->
<g id="edge30" class="edge">
<title>f17&#45;&gt;f16</title>
<path fill="none" stroke="black" d="M1056.22,-1115C1192.91,-1108.84 1526.97,-1091.44 1635.98,-1064.5 1637.98,-1064.01 1640.01,-1063.42 1642.04,-1062.78"/>
<polygon fill="black" stroke="black" points="1643.12,-1066.11 1651.3,-1059.38 1640.71,-1059.54 1643.12,-1066.11"/>
</g>
<!-- f18 -->
<g id="node19" class="node">
<title>f18</title>
<ellipse fill="none" stroke="black" cx="488.98" cy="-1046.5" rx="72.85" ry="18"/>
<text text-anchor="middle" x="488.98" y="-1041.45" font-family="Times,serif" font-size="14.00">__wasi_args_get</text>
</g>
<!-- f17&#45;&gt;f18 -->
<g id="edge28" class="edge">
<title>f17&#45;&gt;f18</title>
<path fill="none" stroke="black" d="M953.37,-1105.8C944.99,-1103.83 936.24,-1101.95 927.98,-1100.5 777.87,-1074.21 737.92,-1085.54 586.98,-1064.5 577.35,-1063.16 567.22,-1061.58 557.26,-1059.94"/>
<polygon fill="black" stroke="black" points="558.08,-1056.53 547.63,-1058.33 556.92,-1063.44 558.08,-1056.53"/>
</g>
<!-- f19 -->
<g id="node20" class="node">
<title>f19</title>
<ellipse fill="none" stroke="black" cx="600.98" cy="-182.5" rx="95.37" ry="18"/>
<text text-anchor="middle" x="600.98" y="-177.45" font-family="Times,serif" font-size="14.00">__wasi_args_sizes_get</text>
</g>
<!-- f17&#45;&gt;f19 -->
<g id="edge25" class="edge">
<title>f17&#45;&gt;f19</title>
<path fill="none" stroke="black" d="M952.54,-1106.07C944.4,-1104.11 935.95,-1102.17 927.98,-1100.5 775.7,-1068.6 600.98,-1131.09 600.98,-975.5 600.98,-975.5 600.98,-975.5 600.98,-325.5 600.98,-286.24 600.98,-240.88 600.98,-212.19"/>
<polygon fill="black" stroke="black" points="604.48,-212.5 600.98,-202.5 597.48,-212.5 604.48,-212.5"/>
</g>
<!-- f18&#45;&gt;f0 -->
<g id="edge32" class="edge">
<title>f18&#45;&gt;f0</title>
<path fill="none" stroke="black" d="M451.22,-1030.74C405.05,-1009.92 332.98,-967.22 332.98,-903.5 332.98,-903.5 332.98,-903.5 332.98,-253.5 332.98,-197.85 277.8,-156.96 235.29,-133.71"/>
<polygon fill="black" stroke="black" points="237.16,-130.74 226.68,-129.16 233.89,-136.93 237.16,-130.74"/>
</g>
<!-- f19&#45;&gt;f1 -->
<g id="edge33" class="edge">
<title>f19&#45;&gt;f1</title>
<path fill="none" stroke="black" d="M600.98,-164.2C600.98,-156.91 600.98,-148.23 600.98,-140.04"/>
<polygon fill="black" stroke="black" points="604.48,-140.12 600.98,-130.12 597.48,-140.12 604.48,-140.12"/>
</g>
<!-- f20 -->
<g id="node21" class="node">
<title>f20</title>
<ellipse fill="none" stroke="black" cx="1493.98" cy="-182.5" rx="72.85" ry="18"/>
<text text-anchor="middle" x="1493.98" y="-177.45" font-family="Times,serif" font-size="14.00">__wasi_fd_close</text>
</g>
<!-- f20&#45;&gt;f2 -->
<g id="edge34" class="edge">
<title>f20&#45;&gt;f2</title>
<path fill="none" stroke="black" d="M1472.18,-164.91C1460.63,-156.13 1446.25,-145.18 1433.51,-135.49"/>
<polygon fill="black" stroke="black" points="1435.87,-132.89 1425.79,-129.62 1431.63,-138.46 1435.87,-132.89"/>
</g>
<!-- f21 -->
<g id="node22" class="node">
<title>f21</title>
<ellipse fill="none" stroke="black" cx="2064.98" cy="-182.5" rx="90.25" ry="18"/>
<text text-anchor="middle" x="2064.98" y="-177.45" font-family="Times,serif" font-size="14.00">__wasi_fd_fdstat_get</text>
</g>
<!-- f21&#45;&gt;f3 -->
<g id="edge35" class="edge">
<title>f21&#45;&gt;f3</title>
<path fill="none" stroke="black" d="M2096.99,-165.26C2115.43,-155.91 2138.88,-144.02 2159.03,-133.79"/>
<polygon fill="black" stroke="black" points="2160.54,-136.95 2167.87,-129.31 2157.37,-130.71 2160.54,-136.95"/>
</g>
<!-- f22 -->
<g id="node23" class="node">
<title>f22</title>
<ellipse fill="none" stroke="black" cx="1026.98" cy="-182.5" rx="70.29" ry="18"/>
<text text-anchor="middle" x="1026.98" y="-177.45" font-family="Times,serif" font-size="14.00">__wasi_fd_seek</text>
</g>
<!-- f22&#45;&gt;f4 -->
<g id="edge36" class="edge">
<title>f22&#45;&gt;f4</title>
<path fill="none" stroke="black" d="M1023.52,-164.2C1022.04,-156.82 1020.29,-148.02 1018.63,-139.75"/>
<polygon fill="black" stroke="black" points="1022.09,-139.21 1016.7,-130.09 1015.23,-140.58 1022.09,-139.21"/>
</g>
<!-- f23 -->
<g id="node24" class="node">
<title>f23</title>
<ellipse fill="none" stroke="black" cx="1732.98" cy="-182.5" rx="72.85" ry="18"/>
<text text-anchor="middle" x="1732.98" y="-177.45" font-family="Times,serif" font-size="14.00">__wasi_fd_write</text>
</g>
<!-- f23&#45;&gt;f5 -->
<g id="edge37" class="edge">
<title>f23&#45;&gt;f5</title>
<path fill="none" stroke="black" d="M1747.75,-164.55C1754.83,-156.42 1763.48,-146.5 1771.37,-137.44"/>
<polygon fill="black" stroke="black" points="1774,-139.75 1777.93,-129.92 1768.72,-135.16 1774,-139.75"/>
</g>
<!-- f24&#45;&gt;f6 -->
<g id="edge38" class="edge">
<title>f24&#45;&gt;f6</title>
<path fill="none" stroke="black" d="M1907.89,-970.56C2063.21,-962.42 2405.98,-932.96 2405.98,-831.5 2405.98,-831.5 2405.98,-831.5 2405.98,-253.5 2405.98,-188.35 2476.2,-151.06 2535.43,-131.2"/>
<polygon fill="black" stroke="black" points="2536.46,-134.55 2544.9,-128.16 2534.31,-127.89 2536.46,-134.55"/>
</g>
<!-- f25 -->
<g id="node26" class="node">
<title>f25</title>
<ellipse fill="none" stroke="black" cx="683.98" cy="-614.5" rx="29.86" ry="18"/>
<text text-anchor="middle" x="683.98" y="-609.45" font-family="Times,serif" font-size="14.00">abort</text>
</g>
<!-- f26&#45;&gt;f25 -->
<g id="edge39" class="edge">
<title>f26&#45;&gt;f25</title>
<path fill="none" stroke="black" d="M657.69,-884.04C662.37,-836.26 675.41,-703.01 681.18,-644.11"/>
<polygon fill="black" stroke="black" points="684.65,-644.53 682.15,-634.24 677.69,-643.85 684.65,-644.53"/>
</g>
<!-- f27 -->
<g id="node28" class="node">
<title>f27</title>
<ellipse fill="none" stroke="black" cx="1764.98" cy="-1046.5" rx="40.09" ry="18"/>
<text text-anchor="middle" x="1764.98" y="-1041.45" font-family="Times,serif" font-size="14.00">dummy</text>
</g>
<!-- f28&#45;&gt;f27 -->
<g id="edge40" class="edge">
<title>f28&#45;&gt;f27</title>
<path fill="none" stroke="black" d="M1612.6,-1102.48C1645.51,-1090.61 1691.21,-1074.12 1723.96,-1062.3"/>
<polygon fill="black" stroke="black" points="1724.89,-1065.69 1733.11,-1059 1722.52,-1059.1 1724.89,-1065.69"/>
</g>
<!-- f40 -->
<g id="node41" class="node">
<title>f40</title>
<ellipse fill="none" stroke="black" cx="1570.98" cy="-1046.5" rx="56.47" ry="18"/>
<text text-anchor="middle" x="1570.98" y="-1041.45" font-family="Times,serif" font-size="14.00">__stdio_exit</text>
</g>
<!-- f28&#45;&gt;f40 -->
<g id="edge41" class="edge">
<title>f28&#45;&gt;f40</title>
<path fill="none" stroke="black" d="M1570.98,-1100.2C1570.98,-1092.91 1570.98,-1084.23 1570.98,-1076.04"/>
<polygon fill="black" stroke="black" points="1574.48,-1076.12 1570.98,-1066.12 1567.48,-1076.12 1574.48,-1076.12"/>
</g>
<!-- f51 -->
<g id="node52" class="node">
<title>f51</title>
<ellipse fill="none" stroke="black" cx="1116.98" cy="-902.5" rx="39.07" ry="18"/>
<text text-anchor="middle" x="1116.98" y="-897.45" font-family="Times,serif" font-size="14.00">vfprintf</text>
</g>
<!-- f29&#45;&gt;f51 -->
<g id="edge42" class="edge">
<title>f29&#45;&gt;f51</title>
<path fill="none" stroke="black" d="M1113.97,-956.2C1114.39,-948.91 1114.88,-940.23 1115.35,-932.04"/>
<polygon fill="black" stroke="black" points="1118.84,-932.3 1115.92,-922.12 1111.85,-931.9 1118.84,-932.3"/>
</g>
<!-- f30 -->
<g id="node31" class="node">
<title>f30</title>
<ellipse fill="none" stroke="black" cx="1277.98" cy="-182.5" rx="125.05" ry="18"/>
<text text-anchor="middle" x="1277.98" y="-177.45" font-family="Times,serif" font-size="14.00">__wasilibc_populate_preopens</text>
</g>
<!-- f31 -->
<g id="node32" class="node">
<title>f31</title>
<ellipse fill="none" stroke="black" cx="1493.98" cy="-254.5" rx="29.86" ry="18"/>
<text text-anchor="middle" x="1493.98" y="-249.45" font-family="Times,serif" font-size="14.00">close</text>
</g>
<!-- f31&#45;&gt;f20 -->
<g id="edge44" class="edge">
<title>f31&#45;&gt;f20</title>
<path fill="none" stroke="black" d="M1493.98,-236.2C1493.98,-228.91 1493.98,-220.23 1493.98,-212.04"/>
<polygon fill="black" stroke="black" points="1497.48,-212.12 1493.98,-202.12 1490.48,-212.12 1497.48,-212.12"/>
</g>
<!-- f31&#45;&gt;f30 -->
<g id="edge43" class="edge">
<title>f31&#45;&gt;f30</title>
<path fill="none" stroke="black" d="M1467.93,-245.06C1435.93,-234.69 1380.65,-216.77 1337.95,-202.93"/>
<polygon fill="black" stroke="black" points="1339.14,-199.64 1328.55,-199.89 1336.98,-206.3 1339.14,-199.64"/>
</g>
<!-- f32 -->
<g id="node33" class="node">
<title>f32</title>
<ellipse fill="none" stroke="black" cx="1499.98" cy="-326.5" rx="61.59" ry="18"/>
<text text-anchor="middle" x="1499.98" y="-321.45" font-family="Times,serif" font-size="14.00">__stdio_close</text>
</g>
<!-- f32&#45;&gt;f31 -->
<g id="edge45" class="edge">
<title>f32&#45;&gt;f31</title>
<path fill="none" stroke="black" d="M1498.5,-308.2C1497.87,-300.91 1497.13,-292.23 1496.43,-284.04"/>
<polygon fill="black" stroke="black" points="1499.92,-283.78 1495.58,-274.11 1492.94,-284.37 1499.92,-283.78"/>
</g>
<!-- f33 -->
<g id="node34" class="node">
<title>f33</title>
<ellipse fill="none" stroke="black" cx="1691.98" cy="-254.5" rx="34.46" ry="18"/>
<text text-anchor="middle" x="1691.98" y="-249.45" font-family="Times,serif" font-size="14.00">writev</text>
</g>
<!-- f33&#45;&gt;f23 -->
<g id="edge46" class="edge">
<title>f33&#45;&gt;f23</title>
<path fill="none" stroke="black" d="M1701.7,-236.91C1706.38,-228.92 1712.1,-219.14 1717.37,-210.14"/>
<polygon fill="black" stroke="black" points="1720.25,-212.16 1722.28,-201.76 1714.21,-208.62 1720.25,-212.16"/>
</g>
<!-- f34 -->
<g id="node35" class="node">
<title>f34</title>
<ellipse fill="none" stroke="black" cx="1651.98" cy="-326.5" rx="61.59" ry="18"/>
<text text-anchor="middle" x="1651.98" y="-321.45" font-family="Times,serif" font-size="14.00">__stdio_write</text>
</g>
<!-- f34&#45;&gt;f33 -->
<g id="edge47" class="edge">
<title>f34&#45;&gt;f33</title>
<path fill="none" stroke="black" d="M1661.66,-308.55C1666.18,-300.64 1671.67,-291.04 1676.73,-282.19"/>
<polygon fill="black" stroke="black" points="1679.71,-284.02 1681.64,-273.6 1673.64,-280.55 1679.71,-284.02"/>
</g>
<!-- f35 -->
<g id="node36" class="node">
<title>f35</title>
<ellipse fill="none" stroke="black" cx="2009.98" cy="-254.5" rx="40.09" ry="18"/>
<text text-anchor="middle" x="2009.98" y="-249.45" font-family="Times,serif" font-size="14.00">__isatty</text>
</g>
<!-- f35&#45;&gt;f21 -->
<g id="edge48" class="edge">
<title>f35&#45;&gt;f21</title>
<path fill="none" stroke="black" d="M2022.74,-237.26C2029.21,-229.03 2037.23,-218.82 2044.54,-209.52"/>
<polygon fill="black" stroke="black" points="2047.16,-211.84 2050.59,-201.81 2041.66,-207.51 2047.16,-211.84"/>
</g>
<!-- f36 -->
<g id="node37" class="node">
<title>f36</title>
<ellipse fill="none" stroke="black" cx="1651.98" cy="-398.5" rx="66.19" ry="18"/>
<text text-anchor="middle" x="1651.98" y="-393.45" font-family="Times,serif" font-size="14.00">__stdout_write</text>
</g>
<!-- f36&#45;&gt;f34 -->
<g id="edge50" class="edge">
<title>f36&#45;&gt;f34</title>
<path fill="none" stroke="black" d="M1651.98,-380.2C1651.98,-372.91 1651.98,-364.23 1651.98,-356.04"/>
<polygon fill="black" stroke="black" points="1655.48,-356.12 1651.98,-346.12 1648.48,-356.12 1655.48,-356.12"/>
</g>
<!-- f36&#45;&gt;f35 -->
<g id="edge49" class="edge">
<title>f36&#45;&gt;f35</title>
<path fill="none" stroke="black" d="M1688.28,-383.1C1755.77,-356.33 1900.08,-299.09 1970.15,-271.3"/>
<polygon fill="black" stroke="black" points="1971.33,-274.6 1979.33,-267.66 1968.75,-268.09 1971.33,-274.6"/>
</g>
<!-- f37 -->
<g id="node38" class="node">
<title>f37</title>
<ellipse fill="none" stroke="black" cx="1102.98" cy="-254.5" rx="39.07" ry="18"/>
<text text-anchor="middle" x="1102.98" y="-249.45" font-family="Times,serif" font-size="14.00">__lseek</text>
</g>
<!-- f37&#45;&gt;f22 -->
<g id="edge51" class="edge">
<title>f37&#45;&gt;f22</title>
<path fill="none" stroke="black" d="M1086.11,-237.96C1076.52,-229.13 1064.29,-217.87 1053.45,-207.88"/>
<polygon fill="black" stroke="black" points="1055.97,-205.44 1046.24,-201.24 1051.22,-210.59 1055.97,-205.44"/>
</g>
<!-- f38 -->
<g id="node39" class="node">
<title>f38</title>
<ellipse fill="none" stroke="black" cx="1247.98" cy="-326.5" rx="59.03" ry="18"/>
<text text-anchor="middle" x="1247.98" y="-321.45" font-family="Times,serif" font-size="14.00">__stdio_seek</text>
</g>
<!-- f38&#45;&gt;f37 -->
<g id="edge52" class="edge">
<title>f38&#45;&gt;f37</title>
<path fill="none" stroke="black" d="M1217.58,-310.83C1194.72,-299.79 1163.32,-284.63 1139.16,-272.97"/>
<polygon fill="black" stroke="black" points="1140.86,-269.9 1130.33,-268.7 1137.82,-276.2 1140.86,-269.9"/>
</g>
<!-- f39 -->
<g id="node40" class="node">
<title>f39</title>
<ellipse fill="none" stroke="black" cx="1668.98" cy="-974.5" rx="50.84" ry="18"/>
<text text-anchor="middle" x="1668.98" y="-969.45" font-family="Times,serif" font-size="14.00">__ofl_lock</text>
</g>
<!-- f40&#45;&gt;f39 -->
<g id="edge53" class="edge">
<title>f40&#45;&gt;f39</title>
<path fill="none" stroke="black" d="M1593.22,-1029.62C1606.47,-1020.15 1623.48,-1008 1638.03,-997.61"/>
<polygon fill="black" stroke="black" points="1639.83,-1000.62 1645.94,-991.96 1635.77,-994.92 1639.83,-1000.62"/>
</g>
<!-- table0 -->
<g id="node62" class="node">
<title>table0</title>
<polygon fill="none" stroke="purple" points="1586.01,-488.5 1508.02,-488.5 1487.95,-452.5 1565.94,-452.5 1586.01,-488.5"/>
<text text-anchor="middle" x="1536.98" y="-465.45" font-family="Times,serif" font-size="14.00">table0</text>
</g>
<!-- f40&#45;&gt;table0 -->
<g id="edge54" class="edge">
<title>f40&#45;&gt;table0</title>
<path fill="none" stroke="purple" d="M1574.83,-1028.11C1580.38,-1001.44 1589.98,-948.77 1589.98,-903.5 1589.98,-903.5 1589.98,-903.5 1589.98,-613.5 1589.98,-571.27 1569.15,-526.18 1553.61,-498.41"/>
<polygon fill="purple" stroke="purple" points="1556.76,-496.87 1548.72,-489.97 1550.7,-500.38 1556.76,-496.87"/>
</g>
<!-- f41 -->
<g id="node42" class="node">
<title>f41</title>
<ellipse fill="none" stroke="black" cx="1018.98" cy="-470.5" rx="46.23" ry="18"/>
<text text-anchor="middle" x="1018.98" y="-465.45" font-family="Times,serif" font-size="14.00">__towrite</text>
</g>
<!-- f42 -->
<g id="node43" class="node">
<title>f42</title>
<ellipse fill="none" stroke="black" cx="1196.98" cy="-542.5" rx="46.75" ry="18"/>
<text text-anchor="middle" x="1196.98" y="-537.45" font-family="Times,serif" font-size="14.00">__fwritex</text>
</g>
<!-- f42&#45;&gt;f41 -->
<g id="edge55" class="edge">
<title>f42&#45;&gt;f41</title>
<path fill="none" stroke="black" d="M1165.16,-528.99C1136.14,-517.57 1093.06,-500.63 1061.17,-488.09"/>
<polygon fill="black" stroke="black" points="1062.82,-484.98 1052.24,-484.58 1060.26,-491.49 1062.82,-484.98"/>
</g>
<!-- f56 -->
<g id="node57" class="node">
<title>f56</title>
<ellipse fill="none" stroke="black" cx="1161.98" cy="-470.5" rx="43.67" ry="18"/>
<text text-anchor="middle" x="1161.98" y="-465.45" font-family="Times,serif" font-size="14.00">memcpy</text>
</g>
<!-- f42&#45;&gt;f56 -->
<g id="edge57" class="edge">
<title>f42&#45;&gt;f56</title>
<path fill="none" stroke="black" d="M1188.51,-524.55C1184.6,-516.73 1179.85,-507.25 1175.47,-498.48"/>
<polygon fill="black" stroke="black" points="1178.65,-497.02 1171.05,-489.64 1172.39,-500.15 1178.65,-497.02"/>
</g>
<!-- f42&#45;&gt;table0 -->
<g id="edge56" class="edge">
<title>f42&#45;&gt;table0</title>
<path fill="none" stroke="purple" d="M1237.65,-533.13C1301.47,-519.99 1424.71,-494.61 1491.42,-480.88"/>
<polygon fill="purple" stroke="purple" points="1491.84,-484.37 1500.93,-478.92 1490.43,-477.51 1491.84,-484.37"/>
</g>
<!-- f43 -->
<g id="node44" class="node">
<title>f43</title>
<ellipse fill="none" stroke="black" cx="1018.98" cy="-542.5" rx="32.93" ry="18"/>
<text text-anchor="middle" x="1018.98" y="-537.45" font-family="Times,serif" font-size="14.00">fwrite</text>
</g>
<!-- f43&#45;&gt;f41 -->
<g id="edge58" class="edge">
<title>f43&#45;&gt;f41</title>
<path fill="none" stroke="black" d="M1018.98,-524.2C1018.98,-516.91 1018.98,-508.23 1018.98,-500.04"/>
<polygon fill="black" stroke="black" points="1022.48,-500.12 1018.98,-490.12 1015.48,-500.12 1022.48,-500.12"/>
</g>
<!-- f43&#45;&gt;f56 -->
<g id="edge60" class="edge">
<title>f43&#45;&gt;f56</title>
<path fill="none" stroke="black" d="M1042.92,-529.78C1065.14,-518.91 1098.58,-502.54 1124.37,-489.91"/>
<polygon fill="black" stroke="black" points="1125.74,-493.14 1133.18,-485.6 1122.66,-486.85 1125.74,-493.14"/>
</g>
<!-- f43&#45;&gt;table0 -->
<g id="edge59" class="edge">
<title>f43&#45;&gt;table0</title>
<path fill="none" stroke="purple" d="M1043.48,-530.28C1049.13,-528.06 1055.18,-525.97 1060.98,-524.5 1213,-486.05 1399.35,-475.49 1486.96,-472.59"/>
<polygon fill="purple" stroke="purple" points="1487,-476.09 1496.89,-472.28 1486.79,-469.09 1487,-476.09"/>
</g>
<!-- f44 -->
<g id="node45" class="node">
<title>f44</title>
<ellipse fill="none" stroke="black" cx="1478.98" cy="-614.5" rx="40.09" ry="18"/>
<text text-anchor="middle" x="1478.98" y="-609.45" font-family="Times,serif" font-size="14.00">dummy</text>
</g>
<!-- f45 -->
<g id="node46" class="node">
<title>f45</title>
<ellipse fill="none" stroke="black" cx="1478.98" cy="-686.5" rx="44.7" ry="18"/>
<text text-anchor="middle" x="1478.98" y="-681.45" font-family="Times,serif" font-size="14.00">__lctrans</text>
</g>
<!-- f45&#45;&gt;f44 -->
<g id="edge61" class="edge">
<title>f45&#45;&gt;f44</title>
<path fill="none" stroke="black" d="M1478.98,-668.2C1478.98,-660.91 1478.98,-652.23 1478.98,-644.04"/>
<polygon fill="black" stroke="black" points="1482.48,-644.12 1478.98,-634.12 1475.48,-644.12 1482.48,-644.12"/>
</g>
<!-- f46 -->
<g id="node47" class="node">
<title>f46</title>
<ellipse fill="none" stroke="black" cx="1485.98" cy="-758.5" rx="38.04" ry="18"/>
<text text-anchor="middle" x="1485.98" y="-753.45" font-family="Times,serif" font-size="14.00">strerror</text>
</g>
<!-- f46&#45;&gt;f45 -->
<g id="edge62" class="edge">
<title>f46&#45;&gt;f45</title>
<path fill="none" stroke="black" d="M1484.25,-740.2C1483.52,-732.91 1482.65,-724.23 1481.83,-716.04"/>
<polygon fill="black" stroke="black" points="1485.32,-715.71 1480.84,-706.11 1478.35,-716.41 1485.32,-715.71"/>
</g>
<!-- f47 -->
<g id="node48" class="node">
<title>f47</title>
<ellipse fill="none" stroke="black" cx="1371.98" cy="-686.5" rx="44.19" ry="18"/>
<text text-anchor="middle" x="1371.98" y="-681.45" font-family="Times,serif" font-size="14.00">wcrtomb</text>
</g>
<!-- f48 -->
<g id="node49" class="node">
<title>f48</title>
<ellipse fill="none" stroke="black" cx="1388.98" cy="-758.5" rx="41.12" ry="18"/>
<text text-anchor="middle" x="1388.98" y="-753.45" font-family="Times,serif" font-size="14.00">wctomb</text>
</g>
<!-- f48&#45;&gt;f47 -->
<g id="edge63" class="edge">
<title>f48&#45;&gt;f47</title>
<path fill="none" stroke="black" d="M1384.78,-740.2C1382.99,-732.82 1380.85,-724.02 1378.84,-715.75"/>
<polygon fill="black" stroke="black" points="1382.25,-714.97 1376.49,-706.08 1375.45,-716.62 1382.25,-714.97"/>
</g>
<!-- f49 -->
<g id="node50" class="node">
<title>f49</title>
<ellipse fill="none" stroke="black" cx="1281.98" cy="-758.5" rx="30.37" ry="18"/>
<text text-anchor="middle" x="1281.98" y="-753.45" font-family="Times,serif" font-size="14.00">frexp</text>
</g>
<!-- f49&#45;&gt;f49 -->
<g id="edge64" class="edge">
<title>f49&#45;&gt;f49</title>
<path fill="none" stroke="black" d="M1304.37,-771.16C1317.75,-773.97 1330.35,-769.75 1330.35,-758.5 1330.35,-750.59 1324.12,-746.16 1315.77,-745.2"/>
<polygon fill="black" stroke="black" points="1315.67,-741.7 1305.88,-745.76 1316.06,-748.69 1315.67,-741.7"/>
</g>
<!-- f50 -->
<g id="node51" class="node">
<title>f50</title>
<ellipse fill="none" stroke="black" cx="1018.98" cy="-614.5" rx="29.34" ry="18"/>
<text text-anchor="middle" x="1018.98" y="-609.45" font-family="Times,serif" font-size="14.00">fputs</text>
</g>
<!-- f50&#45;&gt;f43 -->
<g id="edge66" class="edge">
<title>f50&#45;&gt;f43</title>
<path fill="none" stroke="black" d="M1018.98,-596.2C1018.98,-588.91 1018.98,-580.23 1018.98,-572.04"/>
<polygon fill="black" stroke="black" points="1022.48,-572.12 1018.98,-562.12 1015.48,-572.12 1022.48,-572.12"/>
</g>
<!-- f58 -->
<g id="node59" class="node">
<title>f58</title>
<ellipse fill="none" stroke="black" cx="1100.98" cy="-542.5" rx="31.39" ry="18"/>
<text text-anchor="middle" x="1100.98" y="-537.45" font-family="Times,serif" font-size="14.00">strlen</text>
</g>
<!-- f50&#45;&gt;f58 -->
<g id="edge65" class="edge">
<title>f50&#45;&gt;f58</title>
<path fill="none" stroke="black" d="M1035.57,-599.33C1047.06,-589.53 1062.56,-576.3 1075.58,-565.18"/>
<polygon fill="black" stroke="black" points="1077.65,-568.02 1082.98,-558.87 1073.1,-562.7 1077.65,-568.02"/>
</g>
<!-- f51&#45;&gt;f41 -->
<g id="edge68" class="edge">
<title>f51&#45;&gt;f41</title>
<path fill="none" stroke="black" d="M1083.06,-893.18C1013.16,-873.93 854.64,-818.99 794.98,-704.5 744.65,-607.9 899.44,-523.83 977.22,-488.83"/>
<polygon fill="black" stroke="black" points="978.54,-492.07 986.27,-484.83 975.71,-485.67 978.54,-492.07"/>
</g>
<!-- f52 -->
<g id="node53" class="node">
<title>f52</title>
<ellipse fill="none" stroke="black" cx="1133.98" cy="-830.5" rx="51.86" ry="18"/>
<text text-anchor="middle" x="1133.98" y="-825.45" font-family="Times,serif" font-size="14.00">printf_core</text>
</g>
<!-- f51&#45;&gt;f52 -->
<g id="edge67" class="edge">
<title>f51&#45;&gt;f52</title>
<path fill="none" stroke="black" d="M1121.18,-884.2C1122.97,-876.82 1125.11,-868.02 1127.12,-859.75"/>
<polygon fill="black" stroke="black" points="1130.51,-860.62 1129.47,-850.08 1123.71,-858.97 1130.51,-860.62"/>
</g>
<!-- f51&#45;&gt;table0 -->
<g id="edge69" class="edge">
<title>f51&#45;&gt;table0</title>
<path fill="none" stroke="purple" d="M1154.82,-897.38C1260.66,-884.83 1551.98,-842.72 1551.98,-759.5 1551.98,-759.5 1551.98,-759.5 1551.98,-613.5 1551.98,-574.02 1546.18,-528.71 1541.79,-500.1"/>
<polygon fill="purple" stroke="purple" points="1545.28,-499.75 1540.25,-490.42 1538.36,-500.85 1545.28,-499.75"/>
</g>
<!-- f52&#45;&gt;f42 -->
<g id="edge70" class="edge">
<title>f52&#45;&gt;f42</title>
<path fill="none" stroke="black" d="M1137.27,-812.36C1140.81,-794.38 1146.77,-765.33 1152.98,-740.5 1165.09,-692.05 1173.46,-681.32 1183.98,-632.5 1188.31,-612.41 1191.63,-589.45 1193.82,-571.88"/>
<polygon fill="black" stroke="black" points="1197.27,-572.53 1194.99,-562.19 1190.32,-571.7 1197.27,-572.53"/>
</g>
<!-- f52&#45;&gt;f46 -->
<g id="edge72" class="edge">
<title>f52&#45;&gt;f46</title>
<path fill="none" stroke="black" d="M1182.62,-823.72C1243.29,-815.9 1349.9,-800.16 1438.98,-776.5 1441.53,-775.82 1444.13,-775.07 1446.74,-774.26"/>
<polygon fill="black" stroke="black" points="1447.57,-777.68 1455.96,-771.21 1445.37,-771.03 1447.57,-777.68"/>
</g>
<!-- f52&#45;&gt;f48 -->
<g id="edge74" class="edge">
<title>f52&#45;&gt;f48</title>
<path fill="none" stroke="black" d="M1175.85,-819.65C1217.46,-809.63 1282.98,-793.23 1338.98,-776.5 1341.54,-775.74 1344.16,-774.93 1346.8,-774.09"/>
<polygon fill="black" stroke="black" points="1347.76,-777.46 1356.18,-771.03 1345.59,-770.8 1347.76,-777.46"/>
</g>
<!-- f52&#45;&gt;f49 -->
<g id="edge76" class="edge">
<title>f52&#45;&gt;f49</title>
<path fill="none" stroke="black" d="M1163.93,-815.33C1188.47,-803.73 1223.16,-787.32 1248.59,-775.29"/>
<polygon fill="black" stroke="black" points="1249.95,-778.52 1257.5,-771.08 1246.96,-772.19 1249.95,-778.52"/>
</g>
<!-- f53 -->
<g id="node54" class="node">
<title>f53</title>
<ellipse fill="none" stroke="black" cx="1064.98" cy="-758.5" rx="41.12" ry="18"/>
<text text-anchor="middle" x="1064.98" y="-753.45" font-family="Times,serif" font-size="14.00">pop_arg</text>
</g>
<!-- f52&#45;&gt;f53 -->
<g id="edge71" class="edge">
<title>f52&#45;&gt;f53</title>
<path fill="none" stroke="black" d="M1117.98,-813.26C1109.14,-804.3 1098.01,-793.01 1088.24,-783.09"/>
<polygon fill="black" stroke="black" points="1091,-780.91 1081.49,-776.24 1086.01,-785.82 1091,-780.91"/>
</g>
<!-- f54 -->
<g id="node55" class="node">
<title>f54</title>
<ellipse fill="none" stroke="black" cx="978.98" cy="-758.5" rx="27" ry="18"/>
<text text-anchor="middle" x="978.98" y="-753.45" font-family="Times,serif" font-size="14.00">pad</text>
</g>
<!-- f52&#45;&gt;f54 -->
<g id="edge77" class="edge">
<title>f52&#45;&gt;f54</title>
<path fill="none" stroke="black" d="M1102.58,-815.74C1078.53,-805.15 1044.58,-790.08 1014.98,-776.5 1013.67,-775.9 1012.34,-775.29 1010.99,-774.66"/>
<polygon fill="black" stroke="black" points="1012.56,-771.53 1002.02,-770.47 1009.6,-777.87 1012.56,-771.53"/>
</g>
<!-- f52&#45;&gt;f57 -->
<g id="edge75" class="edge">
<title>f52&#45;&gt;f57</title>
<path fill="none" stroke="black" d="M1086.91,-822.73C1046.76,-815.52 988.48,-801.59 942.98,-776.5 926.76,-767.55 892.11,-734.58 868.67,-711.39"/>
<polygon fill="black" stroke="black" points="871.22,-709 861.67,-704.42 866.29,-713.96 871.22,-709"/>
</g>
<!-- f60 -->
<g id="node61" class="node">
<title>f60</title>
<ellipse fill="none" stroke="black" cx="1197.98" cy="-758.5" rx="36" ry="18"/>
<text text-anchor="middle" x="1197.98" y="-753.45" font-family="Times,serif" font-size="14.00">strnlen</text>
</g>
<!-- f52&#45;&gt;f60 -->
<g id="edge73" class="edge">
<title>f52&#45;&gt;f60</title>
<path fill="none" stroke="black" d="M1149.15,-812.91C1157.19,-804.12 1167.2,-793.16 1176.07,-783.46"/>
<polygon fill="black" stroke="black" points="1178.61,-785.87 1182.78,-776.13 1173.45,-781.15 1178.61,-785.87"/>
</g>
<!-- f55 -->
<g id="node56" class="node">
<title>f55</title>
<ellipse fill="none" stroke="black" cx="1017.98" cy="-686.5" rx="114.3" ry="18"/>
<text text-anchor="middle" x="1017.98" y="-681.45" font-family="Times,serif" font-size="14.00">long_double_not_supported</text>
</g>
<!-- f53&#45;&gt;f55 -->
<g id="edge78" class="edge">
<title>f53&#45;&gt;f55</title>
<path fill="none" stroke="black" d="M1053.84,-740.91C1048.42,-732.84 1041.77,-722.93 1035.68,-713.85"/>
<polygon fill="black" stroke="black" points="1038.69,-712.06 1030.21,-705.71 1032.88,-715.97 1038.69,-712.06"/>
</g>
<!-- f54&#45;&gt;f42 -->
<g id="edge80" class="edge">
<title>f54&#45;&gt;f42</title>
<path fill="none" stroke="black" d="M1000.05,-746.85C1004.89,-744.6 1010.06,-742.35 1014.98,-740.5 1069.49,-720 1098.65,-744.5 1140.98,-704.5 1150.91,-695.12 1175.63,-615.57 1188.65,-571.91"/>
<polygon fill="black" stroke="black" points="1192,-572.93 1191.49,-562.34 1185.29,-570.94 1192,-572.93"/>
</g>
<!-- f54&#45;&gt;f57 -->
<g id="edge79" class="edge">
<title>f54&#45;&gt;f57</title>
<path fill="none" stroke="black" d="M958.04,-746.56C937.3,-735.73 905.15,-718.93 880.43,-706.02"/>
<polygon fill="black" stroke="black" points="882.17,-702.98 871.68,-701.45 878.93,-709.18 882.17,-702.98"/>
</g>
<!-- f55&#45;&gt;f25 -->
<g id="edge82" class="edge">
<title>f55&#45;&gt;f25</title>
<path fill="none" stroke="black" d="M951.19,-671.5C882.95,-657.2 779.26,-635.47 723.23,-623.73"/>
<polygon fill="black" stroke="black" points="724.01,-620.31 713.51,-621.69 722.58,-627.17 724.01,-620.31"/>
</g>
<!-- f55&#45;&gt;f50 -->
<g id="edge81" class="edge">
<title>f55&#45;&gt;f50</title>
<path fill="none" stroke="black" d="M1018.23,-668.2C1018.33,-660.91 1018.46,-652.23 1018.57,-644.04"/>
<polygon fill="black" stroke="black" points="1022.07,-644.17 1018.71,-634.12 1015.07,-644.07 1022.07,-644.17"/>
</g>
<!-- f59 -->
<g id="node60" class="node">
<title>f59</title>
<ellipse fill="none" stroke="black" cx="1267.98" cy="-686.5" rx="42.14" ry="18"/>
<text text-anchor="middle" x="1267.98" y="-681.45" font-family="Times,serif" font-size="14.00">memchr</text>
</g>
<!-- f60&#45;&gt;f59 -->
<g id="edge83" class="edge">
<title>f60&#45;&gt;f59</title>
<path fill="none" stroke="black" d="M1213.52,-741.96C1222.45,-733.03 1233.87,-721.61 1243.94,-711.54"/>
<polygon fill="black" stroke="black" points="1246.34,-714.09 1250.93,-704.55 1241.39,-709.14 1246.34,-714.09"/>
</g>
<!-- table0&#45;&gt;f32 -->
<g id="edge2" class="edge">
<title>table0&#45;&gt;f32</title>
<path fill="none" stroke="purple" d="M1532.44,-452.09C1526.17,-428 1514.77,-384.25 1507.29,-355.53"/>
<polygon fill="purple" stroke="purple" points="1510.73,-354.87 1504.82,-346.08 1503.96,-356.63 1510.73,-354.87"/>
</g>
<!-- table0&#45;&gt;f34 -->
<g id="edge1" class="edge">
<title>table0&#45;&gt;f34</title>
<path fill="none" stroke="purple" d="M1541.71,-452.28C1547.59,-433.18 1559.1,-402.21 1576.98,-380.5 1587.08,-368.24 1600.67,-357.5 1613.51,-348.95"/>
<polygon fill="purple" stroke="purple" points="1615.27,-351.97 1621.84,-343.66 1611.52,-346.07 1615.27,-351.97"/>
</g>
<!-- table0&#45;&gt;f36 -->
<g id="edge3" class="edge">
<title>table0&#45;&gt;f36</title>
<path fill="none" stroke="purple" d="M1565.7,-452.02C1581.02,-442.69 1600.01,-431.14 1616.26,-421.24"/>
<polygon fill="purple" stroke="purple" points="1617.96,-424.3 1624.69,-416.11 1614.32,-418.32 1617.96,-424.3"/>
</g>
<!-- table0&#45;&gt;f38 -->
<g id="edge4" class="edge">
<title>table0&#45;&gt;f38</title>
<path fill="none" stroke="purple" d="M1501.54,-452.09C1447.48,-425.52 1344.73,-375.04 1288.03,-347.18"/>
<polygon fill="purple" stroke="purple" points="1289.88,-344.19 1279.36,-342.92 1286.8,-350.47 1289.88,-344.19"/>
</g>
<!-- export0 -->
<g id="node70" class="node">
<title>export0</title>
<polygon fill="none" stroke="black" points="1323.98,-1280.5 1269.98,-1280.5 1269.98,-1244.5 1323.98,-1244.5 1323.98,-1280.5"/>
<text text-anchor="middle" x="1296.98" y="-1257.45" font-family="Times,serif" font-size="14.00">_start</text>
</g>
<!-- export0&#45;&gt;f8 -->
<g id="edge12" class="edge">
<title>export0&#45;&gt;f8</title>
<path fill="none" stroke="red" d="M1296.98,-1244.2C1296.98,-1236.91 1296.98,-1228.23 1296.98,-1220.04"/>
<polygon fill="red" stroke="red" points="1300.48,-1220.12 1296.98,-1210.12 1293.48,-1220.12 1300.48,-1220.12"/>
</g>
</g>
</svg>
