<?xml version="1.0" encoding="UTF-8" standalone="no"?>
<!DOCTYPE svg PUBLIC "-//W3C//DTD SVG 1.1//EN"
 "http://www.w3.org/Graphics/SVG/1.1/DTD/svg11.dtd">
<!-- Generated by graphviz version 11.0.0 (20240428.1522)
 -->
<!-- Pages: 1 -->
<svg width="2192pt" height="1334pt"
 viewBox="0.00 0.00 2191.61 1333.50" xmlns="http://www.w3.org/2000/svg" xmlns:xlink="http://www.w3.org/1999/xlink">
<g id="graph0" class="graph" transform="scale(1 1) rotate(0) translate(4 1329.5)">
<polygon fill="white" stroke="none" points="-4,4 -4,-1329.5 2187.61,-1329.5 2187.61,4 -4,4"/>
<g id="clust1" class="cluster">
<title>cluster_table_0</title>
<polygon fill="none" stroke="purple" points="418.05,-444.5 418.05,-521 632.05,-521 632.05,-444.5 418.05,-444.5"/>
<text text-anchor="middle" x="525.05" y="-503.7" font-family="Times,serif" font-size="14.00">table_0</text>
</g>
<g id="clust2" class="cluster">
<title>cluster_import_wasi_snapshot_preview1</title>
<polygon fill="none" stroke="blue" points="670.05,-8 670.05,-84.5 1288.05,-84.5 1288.05,-8 670.05,-8"/>
<text text-anchor="middle" x="979.05" y="-67.2" font-family="Times,serif" font-size="14.00">wasi_snapshot_preview1</text>
</g>
<g id="clust3" class="cluster">
<title>cluster_export</title>
<polygon fill="none" stroke="red" points="1535.05,-1241 1535.05,-1317.5 1605.05,-1317.5 1605.05,-1241 1535.05,-1241"/>
<text text-anchor="middle" x="1570.05" y="-1300.2" font-family="Times,serif" font-size="14.00">exports</text>
</g>
<!-- f0 -->
<g id="node1" class="node">
<title>f0</title>
<ellipse fill="none" stroke="blue" cx="1161.05" cy="-110.5" rx="186.98" ry="18"/>
<text text-anchor="middle" x="1161.05" y="-105.45" font-family="Times,serif" font-size="14.00">__imported_wasi_snapshot_preview1_args_get</text>
</g>
<!-- import0 -->
<g id="node65" class="node">
<title>import0</title>
<polygon fill="none" stroke="black" points="1081.93,-52 1020.18,-52 1020.18,-16 1081.93,-16 1081.93,-52"/>
<text text-anchor="middle" x="1051.05" y="-28.95" font-family="Times,serif" font-size="14.00">args_get</text>
</g>
<!-- f0&#45;&gt;import0 -->
<g id="edge5" class="edge">
<title>f0&#45;&gt;import0</title>
<path fill="none" stroke="blue" d="M1105.35,-92.87C1100.33,-90.42 1095.47,-87.64 1091.05,-84.5 1082.28,-78.28 1074.39,-69.63 1067.99,-61.3"/>
<polygon fill="blue" stroke="blue" points="1070.99,-59.47 1062.3,-53.4 1065.31,-63.56 1070.99,-59.47"/>
</g>
<!-- f1 -->
<g id="node2" class="node">
<title>f1</title>
<ellipse fill="none" stroke="blue" cx="1575.05" cy="-110.5" rx="209.5" ry="18"/>
<text text-anchor="middle" x="1575.05" y="-105.45" font-family="Times,serif" font-size="14.00">__imported_wasi_snapshot_preview1_args_sizes_get</text>
</g>
<!-- import1 -->
<g id="node66" class="node">
<title>import1</title>
<polygon fill="none" stroke="black" points="1194.43,-52 1099.68,-52 1099.68,-16 1194.43,-16 1194.43,-52"/>
<text text-anchor="middle" x="1147.05" y="-28.95" font-family="Times,serif" font-size="14.00">args_sizes_get</text>
</g>
<!-- f1&#45;&gt;import1 -->
<g id="edge6" class="edge">
<title>f1&#45;&gt;import1</title>
<path fill="none" stroke="blue" d="M1426.75,-97.42C1403.43,-95.67 1379.59,-93.97 1357.05,-92.5 1323.08,-90.29 1235.62,-97.24 1204.05,-84.5 1190.89,-79.19 1178.67,-69.51 1168.94,-60.12"/>
<polygon fill="blue" stroke="blue" points="1171.62,-57.85 1162.13,-53.13 1166.61,-62.74 1171.62,-57.85"/>
</g>
<!-- f2 -->
<g id="node3" class="node">
<title>f2</title>
<ellipse fill="none" stroke="blue" cx="309.05" cy="-182.5" rx="186.98" ry="18"/>
<text text-anchor="middle" x="309.05" y="-177.45" font-family="Times,serif" font-size="14.00">__imported_wasi_snapshot_preview1_fd_close</text>
</g>
<!-- import2 -->
<g id="node67" class="node">
<title>import2</title>
<polygon fill="none" stroke="black" points="739.93,-52 678.18,-52 678.18,-16 739.93,-16 739.93,-52"/>
<text text-anchor="middle" x="709.05" y="-28.95" font-family="Times,serif" font-size="14.00">fd_close</text>
</g>
<!-- f2&#45;&gt;import2 -->
<g id="edge7" class="edge">
<title>f2&#45;&gt;import2</title>
<path fill="none" stroke="blue" d="M327.31,-164.23C349.87,-143.88 390.3,-110.56 431.05,-92.5 509.72,-57.64 610.38,-43.59 666.45,-38.17"/>
<polygon fill="blue" stroke="blue" points="666.57,-41.68 676.21,-37.28 665.93,-34.7 666.57,-41.68"/>
</g>
<!-- f3 -->
<g id="node4" class="node">
<title>f3</title>
<ellipse fill="none" stroke="blue" cx="882.05" cy="-182.5" rx="204.38" ry="18"/>
<text text-anchor="middle" x="882.05" y="-177.45" font-family="Times,serif" font-size="14.00">__imported_wasi_snapshot_preview1_fd_fdstat_get</text>
</g>
<!-- import3 -->
<g id="node68" class="node">
<title>import3</title>
<polygon fill="none" stroke="black" points="925.68,-52 838.43,-52 838.43,-16 925.68,-16 925.68,-52"/>
<text text-anchor="middle" x="882.05" y="-28.95" font-family="Times,serif" font-size="14.00">fd_fdstat_get</text>
</g>
<!-- f3&#45;&gt;import3 -->
<g id="edge8" class="edge">
<title>f3&#45;&gt;import3</title>
<path fill="none" stroke="blue" d="M882.05,-164.12C882.05,-139.34 882.05,-93.55 882.05,-63.7"/>
<polygon fill="blue" stroke="blue" points="885.55,-63.87 882.05,-53.87 878.55,-63.87 885.55,-63.87"/>
</g>
<!-- f4 -->
<g id="node5" class="node">
<title>f4</title>
<ellipse fill="none" stroke="blue" cx="1289.05" cy="-182.5" rx="184.42" ry="18"/>
<text text-anchor="middle" x="1289.05" y="-177.45" font-family="Times,serif" font-size="14.00">__imported_wasi_snapshot_preview1_fd_seek</text>
</g>
<!-- import4 -->
<g id="node69" class="node">
<title>import4</title>
<polygon fill="none" stroke="black" points="1002.05,-52 944.05,-52 944.05,-16 1002.05,-16 1002.05,-52"/>
<text text-anchor="middle" x="973.05" y="-28.95" font-family="Times,serif" font-size="14.00">fd_seek</text>
</g>
<!-- f4&#45;&gt;import4 -->
<g id="edge9" class="edge">
<title>f4&#45;&gt;import4</title>
<path fill="none" stroke="blue" d="M1164.45,-168.87C1078.84,-158.9 978.32,-144.11 965.05,-128.5 949.92,-110.69 954.26,-83.49 961,-63"/>
<polygon fill="blue" stroke="blue" points="964.2,-64.43 964.36,-53.84 957.63,-62.02 964.2,-64.43"/>
</g>
<!-- f5 -->
<g id="node6" class="node">
<title>f5</title>
<ellipse fill="none" stroke="blue" cx="627.05" cy="-110.5" rx="186.98" ry="18"/>
<text text-anchor="middle" x="627.05" y="-105.45" font-family="Times,serif" font-size="14.00">__imported_wasi_snapshot_preview1_fd_write</text>
</g>
<!-- import5 -->
<g id="node70" class="node">
<title>import5</title>
<polygon fill="none" stroke="black" points="819.93,-52 758.18,-52 758.18,-16 819.93,-16 819.93,-52"/>
<text text-anchor="middle" x="789.05" y="-28.95" font-family="Times,serif" font-size="14.00">fd_write</text>
</g>
<!-- f5&#45;&gt;import5 -->
<g id="edge10" class="edge">
<title>f5&#45;&gt;import5</title>
<path fill="none" stroke="blue" d="M727.45,-94.93C735.01,-92.04 742.31,-88.6 749.05,-84.5 758.38,-78.82 766.46,-70.16 772.88,-61.65"/>
<polygon fill="blue" stroke="blue" points="775.69,-63.74 778.52,-53.53 769.94,-59.74 775.69,-63.74"/>
</g>
<!-- f6 -->
<g id="node7" class="node">
<title>f6</title>
<ellipse fill="none" stroke="blue" cx="1993.05" cy="-110.5" rx="190.56" ry="18"/>
<text text-anchor="middle" x="1993.05" y="-105.45" font-family="Times,serif" font-size="14.00">__imported_wasi_snapshot_preview1_proc_exit</text>
</g>
<!-- import6 -->
<g id="node71" class="node">
<title>import6</title>
<polygon fill="none" stroke="black" points="1279.55,-52 1212.55,-52 1212.55,-16 1279.55,-16 1279.55,-52"/>
<text text-anchor="middle" x="1246.05" y="-28.95" font-family="Times,serif" font-size="14.00">proc_exit</text>
</g>
<!-- f6&#45;&gt;import6 -->
<g id="edge11" class="edge">
<title>f6&#45;&gt;import6</title>
<path fill="none" stroke="blue" d="M1865.49,-96.78C1695.25,-79.8 1402.29,-50.58 1290.85,-39.47"/>
<polygon fill="blue" stroke="blue" points="1291.52,-36.02 1281.22,-38.51 1290.83,-42.98 1291.52,-36.02"/>
</g>
<!-- f7 -->
<g id="node8" class="node">
<title>f7</title>
<ellipse fill="none" stroke="black" cx="1850.05" cy="-1123" rx="82.57" ry="18"/>
<text text-anchor="middle" x="1850.05" y="-1117.95" font-family="Times,serif" font-size="14.00">__wasm_call_ctors</text>
</g>
<!-- f8 -->
<g id="node9" class="node">
<title>f8</title>
<ellipse fill="none" stroke="black" cx="1570.05" cy="-1195" rx="31.39" ry="18"/>
<text text-anchor="middle" x="1570.05" y="-1189.95" font-family="Times,serif" font-size="14.00">_start</text>
</g>
<!-- f8&#45;&gt;f7 -->
<g id="edge13" class="edge">
<title>f8&#45;&gt;f7</title>
<path fill="none" stroke="black" d="M1598.44,-1186.9C1642.13,-1175.98 1726.97,-1154.77 1785.99,-1140.01"/>
<polygon fill="black" stroke="black" points="1786.75,-1143.43 1795.6,-1137.61 1785.05,-1136.64 1786.75,-1143.43"/>
</g>
<!-- f17 -->
<g id="node18" class="node">
<title>f17</title>
<ellipse fill="none" stroke="black" cx="1461.05" cy="-1123" rx="60.05" ry="18"/>
<text text-anchor="middle" x="1461.05" y="-1117.95" font-family="Times,serif" font-size="14.00">__main_void</text>
</g>
<!-- f8&#45;&gt;f17 -->
<g id="edge14" class="edge">
<title>f8&#45;&gt;f17</title>
<path fill="none" stroke="black" d="M1549.55,-1180.83C1534.25,-1171.01 1513,-1157.36 1495.16,-1145.91"/>
<polygon fill="black" stroke="black" points="1497.24,-1143.08 1486.93,-1140.62 1493.46,-1148.97 1497.24,-1143.08"/>
</g>
<!-- f24 -->
<g id="node25" class="node">
<title>f24</title>
<ellipse fill="none" stroke="black" cx="1739.05" cy="-979" rx="76.43" ry="18"/>
<text text-anchor="middle" x="1739.05" y="-973.95" font-family="Times,serif" font-size="14.00">__wasi_proc_exit</text>
</g>
<!-- f8&#45;&gt;f24 -->
<g id="edge16" class="edge">
<title>f8&#45;&gt;f24</title>
<path fill="none" stroke="black" d="M1592.41,-1181.94C1625.8,-1162.71 1688.16,-1121.82 1720.05,-1069 1731.05,-1050.78 1735.74,-1027.09 1737.71,-1008.74"/>
<polygon fill="black" stroke="black" points="1741.19,-1009.05 1738.54,-998.79 1734.22,-1008.46 1741.19,-1009.05"/>
</g>
<!-- f28 -->
<g id="node29" class="node">
<title>f28</title>
<ellipse fill="none" stroke="black" cx="449.05" cy="-619" rx="83.08" ry="18"/>
<text text-anchor="middle" x="449.05" y="-613.95" font-family="Times,serif" font-size="14.00">__wasm_call_dtors</text>
</g>
<!-- f8&#45;&gt;f28 -->
<g id="edge15" class="edge">
<title>f8&#45;&gt;f28</title>
<path fill="none" stroke="black" d="M1538.49,-1193.27C1360.09,-1188.76 486.05,-1161.08 486.05,-1052 486.05,-1052 486.05,-1052 486.05,-762 486.05,-721.25 471.61,-675.98 460.77,-647.75"/>
<polygon fill="black" stroke="black" points="464.04,-646.52 457.1,-638.52 457.54,-649.11 464.04,-646.52"/>
</g>
<!-- f9 -->
<g id="node10" class="node">
<title>f9</title>
<ellipse fill="none" stroke="black" cx="1056.05" cy="-1051" rx="29.86" ry="18"/>
<text text-anchor="middle" x="1056.05" y="-1045.95" font-family="Times,serif" font-size="14.00">main</text>
</g>
<!-- f29 -->
<g id="node30" class="node">
<title>f29</title>
<ellipse fill="none" stroke="black" cx="1031.05" cy="-979" rx="31.39" ry="18"/>
<text text-anchor="middle" x="1031.05" y="-973.95" font-family="Times,serif" font-size="14.00">printf</text>
</g>
<!-- f9&#45;&gt;f29 -->
<g id="edge17" class="edge">
<title>f9&#45;&gt;f29</title>
<path fill="none" stroke="black" d="M1050,-1033.05C1047.27,-1025.4 1043.97,-1016.16 1040.89,-1007.56"/>
<polygon fill="black" stroke="black" points="1044.22,-1006.45 1037.56,-998.21 1037.62,-1008.81 1044.22,-1006.45"/>
</g>
<!-- f10 -->
<g id="node11" class="node">
<title>f10</title>
<ellipse fill="none" stroke="black" cx="1320.05" cy="-1051" rx="36.51" ry="18"/>
<text text-anchor="middle" x="1320.05" y="-1045.95" font-family="Times,serif" font-size="14.00">malloc</text>
</g>
<!-- f11 -->
<g id="node12" class="node">
<title>f11</title>
<ellipse fill="none" stroke="black" cx="1307.05" cy="-979" rx="43.67" ry="18"/>
<text text-anchor="middle" x="1307.05" y="-973.95" font-family="Times,serif" font-size="14.00">dlmalloc</text>
</g>
<!-- f10&#45;&gt;f11 -->
<g id="edge18" class="edge">
<title>f10&#45;&gt;f11</title>
<path fill="none" stroke="black" d="M1316.84,-1032.7C1315.47,-1025.32 1313.83,-1016.52 1312.3,-1008.25"/>
<polygon fill="black" stroke="black" points="1315.77,-1007.79 1310.5,-998.59 1308.89,-1009.06 1315.77,-1007.79"/>
</g>
<!-- f12 -->
<g id="node13" class="node">
<title>f12</title>
<ellipse fill="none" stroke="black" cx="1410.05" cy="-907" rx="63.12" ry="18"/>
<text text-anchor="middle" x="1410.05" y="-901.95" font-family="Times,serif" font-size="14.00">prepend_alloc</text>
</g>
<!-- f11&#45;&gt;f12 -->
<g id="edge20" class="edge">
<title>f11&#45;&gt;f12</title>
<path fill="none" stroke="black" d="M1329.15,-962.98C1343.15,-953.47 1361.51,-940.99 1377.2,-930.33"/>
<polygon fill="black" stroke="black" points="1379,-933.33 1385.31,-924.82 1375.07,-927.54 1379,-933.33"/>
</g>
<!-- f26 -->
<g id="node27" class="node">
<title>f26</title>
<ellipse fill="none" stroke="black" cx="1302.05" cy="-907" rx="27" ry="18"/>
<text text-anchor="middle" x="1302.05" y="-901.95" font-family="Times,serif" font-size="14.00">sbrk</text>
</g>
<!-- f11&#45;&gt;f26 -->
<g id="edge19" class="edge">
<title>f11&#45;&gt;f26</title>
<path fill="none" stroke="black" d="M1305.82,-960.7C1305.3,-953.41 1304.68,-944.73 1304.09,-936.54"/>
<polygon fill="black" stroke="black" points="1307.59,-936.34 1303.38,-926.61 1300.6,-936.84 1307.59,-936.34"/>
</g>
<!-- f13 -->
<g id="node14" class="node">
<title>f13</title>
<ellipse fill="none" stroke="black" cx="1402.05" cy="-1051" rx="27" ry="18"/>
<text text-anchor="middle" x="1402.05" y="-1045.95" font-family="Times,serif" font-size="14.00">free</text>
</g>
<!-- f14 -->
<g id="node15" class="node">
<title>f14</title>
<ellipse fill="none" stroke="black" cx="1402.05" cy="-979" rx="32.41" ry="18"/>
<text text-anchor="middle" x="1402.05" y="-973.95" font-family="Times,serif" font-size="14.00">dlfree</text>
</g>
<!-- f13&#45;&gt;f14 -->
<g id="edge21" class="edge">
<title>f13&#45;&gt;f14</title>
<path fill="none" stroke="black" d="M1402.05,-1032.7C1402.05,-1025.41 1402.05,-1016.73 1402.05,-1008.54"/>
<polygon fill="black" stroke="black" points="1405.55,-1008.62 1402.05,-998.62 1398.55,-1008.62 1405.55,-1008.62"/>
</g>
<!-- f15 -->
<g id="node16" class="node">
<title>f15</title>
<ellipse fill="none" stroke="black" cx="1233.05" cy="-1051" rx="32.93" ry="18"/>
<text text-anchor="middle" x="1233.05" y="-1045.95" font-family="Times,serif" font-size="14.00">calloc</text>
</g>
<!-- f15&#45;&gt;f11 -->
<g id="edge22" class="edge">
<title>f15&#45;&gt;f11</title>
<path fill="none" stroke="black" d="M1249.11,-1034.81C1258.7,-1025.74 1271.09,-1014.01 1281.96,-1003.74"/>
<polygon fill="black" stroke="black" points="1284.3,-1006.34 1289.16,-996.93 1279.49,-1001.26 1284.3,-1006.34"/>
</g>
<!-- f57 -->
<g id="node58" class="node">
<title>f57</title>
<ellipse fill="none" stroke="black" cx="1021.05" cy="-691" rx="40.6" ry="18"/>
<text text-anchor="middle" x="1021.05" y="-685.95" font-family="Times,serif" font-size="14.00">memset</text>
</g>
<!-- f15&#45;&gt;f57 -->
<g id="edge23" class="edge">
<title>f15&#45;&gt;f57</title>
<path fill="none" stroke="black" d="M1233.25,-1032.51C1233.55,-1005.71 1234.05,-952.87 1234.05,-908 1234.05,-908 1234.05,-908 1234.05,-834 1234.05,-793.55 1243.15,-774.09 1215.05,-745 1169.22,-697.55 1134.34,-727.63 1071.05,-709 1068.36,-708.21 1065.59,-707.36 1062.81,-706.48"/>
<polygon fill="black" stroke="black" points="1064.16,-703.24 1053.57,-703.48 1062,-709.9 1064.16,-703.24"/>
</g>
<!-- f16 -->
<g id="node17" class="node">
<title>f16</title>
<ellipse fill="none" stroke="black" cx="1680.05" cy="-1051" rx="30.88" ry="18"/>
<text text-anchor="middle" x="1680.05" y="-1045.95" font-family="Times,serif" font-size="14.00">_Exit</text>
</g>
<!-- f16&#45;&gt;f24 -->
<g id="edge24" class="edge">
<title>f16&#45;&gt;f24</title>
<path fill="none" stroke="black" d="M1693.15,-1034.46C1700.32,-1025.95 1709.39,-1015.19 1717.57,-1005.48"/>
<polygon fill="black" stroke="black" points="1720.01,-1008.02 1723.78,-998.12 1714.66,-1003.51 1720.01,-1008.02"/>
</g>
<!-- f17&#45;&gt;f9 -->
<g id="edge29" class="edge">
<title>f17&#45;&gt;f9</title>
<path fill="none" stroke="black" d="M1410.17,-1113.21C1328.5,-1099.09 1169.83,-1071.67 1095.84,-1058.88"/>
<polygon fill="black" stroke="black" points="1096.65,-1055.47 1086.2,-1057.21 1095.46,-1062.36 1096.65,-1055.47"/>
</g>
<!-- f17&#45;&gt;f10 -->
<g id="edge26" class="edge">
<title>f17&#45;&gt;f10</title>
<path fill="none" stroke="black" d="M1430.8,-1106.98C1408.63,-1095.97 1378.47,-1081 1355.22,-1069.46"/>
<polygon fill="black" stroke="black" points="1356.94,-1066.41 1346.43,-1065.1 1353.83,-1072.68 1356.94,-1066.41"/>
</g>
<!-- f17&#45;&gt;f13 -->
<g id="edge31" class="edge">
<title>f17&#45;&gt;f13</title>
<path fill="none" stroke="black" d="M1446.77,-1105.05C1439.33,-1096.22 1430.1,-1085.28 1421.97,-1075.63"/>
<polygon fill="black" stroke="black" points="1424.7,-1073.44 1415.58,-1068.05 1419.34,-1077.95 1424.7,-1073.44"/>
</g>
<!-- f17&#45;&gt;f15 -->
<g id="edge27" class="edge">
<title>f17&#45;&gt;f15</title>
<path fill="none" stroke="black" d="M1416.01,-1110.81C1377.84,-1100.96 1321.86,-1085.62 1274.05,-1069 1272.25,-1068.37 1270.41,-1067.71 1268.57,-1067.02"/>
<polygon fill="black" stroke="black" points="1270.02,-1063.83 1259.43,-1063.45 1267.47,-1070.35 1270.02,-1063.83"/>
</g>
<!-- f17&#45;&gt;f16 -->
<g id="edge30" class="edge">
<title>f17&#45;&gt;f16</title>
<path fill="none" stroke="black" d="M1503.49,-1109.92C1538.88,-1099.64 1590.51,-1084.18 1635.05,-1069 1638.09,-1067.96 1641.23,-1066.86 1644.37,-1065.72"/>
<polygon fill="black" stroke="black" points="1645.34,-1069.1 1653.51,-1062.35 1642.92,-1062.53 1645.34,-1069.1"/>
</g>
<!-- f18 -->
<g id="node19" class="node">
<title>f18</title>
<ellipse fill="none" stroke="black" cx="1520.05" cy="-1051" rx="72.85" ry="18"/>
<text text-anchor="middle" x="1520.05" y="-1045.95" font-family="Times,serif" font-size="14.00">__wasi_args_get</text>
</g>
<!-- f17&#45;&gt;f18 -->
<g id="edge28" class="edge">
<title>f17&#45;&gt;f18</title>
<path fill="none" stroke="black" d="M1475.33,-1105.05C1482.29,-1096.8 1490.8,-1086.7 1498.53,-1077.54"/>
<polygon fill="black" stroke="black" points="1501.16,-1079.85 1504.93,-1069.95 1495.8,-1075.34 1501.16,-1079.85"/>
</g>
<!-- f19 -->
<g id="node20" class="node">
<title>f19</title>
<ellipse fill="none" stroke="black" cx="1624.05" cy="-182.5" rx="95.37" ry="18"/>
<text text-anchor="middle" x="1624.05" y="-177.45" font-family="Times,serif" font-size="14.00">__wasi_args_sizes_get</text>
</g>
<!-- f17&#45;&gt;f19 -->
<g id="edge25" class="edge">
<title>f17&#45;&gt;f19</title>
<path fill="none" stroke="black" d="M1514.82,-1114.61C1544.69,-1107.72 1580.13,-1094.47 1602.05,-1069 1628.44,-1038.35 1621.05,-1020.45 1621.05,-980 1621.05,-980 1621.05,-980 1621.05,-325.5 1621.05,-286.23 1622.21,-240.87 1623.09,-212.19"/>
<polygon fill="black" stroke="black" points="1626.58,-212.6 1623.4,-202.5 1619.58,-212.38 1626.58,-212.6"/>
</g>
<!-- f18&#45;&gt;f0 -->
<g id="edge32" class="edge">
<title>f18&#45;&gt;f0</title>
<path fill="none" stroke="black" d="M1516.21,-1032.61C1510.65,-1005.94 1501.05,-953.27 1501.05,-908 1501.05,-908 1501.05,-908 1501.05,-253.5 1501.05,-213.05 1511.31,-192.42 1482.05,-164.5 1467.84,-150.94 1374.29,-136.47 1291.83,-126.08"/>
<polygon fill="black" stroke="black" points="1292.39,-122.62 1282.04,-124.86 1291.53,-129.57 1292.39,-122.62"/>
</g>
<!-- f19&#45;&gt;f1 -->
<g id="edge33" class="edge">
<title>f19&#45;&gt;f1</title>
<path fill="none" stroke="black" d="M1611.94,-164.2C1606.36,-156.23 1599.62,-146.6 1593.44,-137.76"/>
<polygon fill="black" stroke="black" points="1596.49,-136.03 1587.89,-129.84 1590.76,-140.04 1596.49,-136.03"/>
</g>
<!-- f20 -->
<g id="node21" class="node">
<title>f20</title>
<ellipse fill="none" stroke="black" cx="341.05" cy="-254.5" rx="72.85" ry="18"/>
<text text-anchor="middle" x="341.05" y="-249.45" font-family="Times,serif" font-size="14.00">__wasi_fd_close</text>
</g>
<!-- f20&#45;&gt;f2 -->
<g id="edge34" class="edge">
<title>f20&#45;&gt;f2</title>
<path fill="none" stroke="black" d="M333.14,-236.2C329.65,-228.57 325.47,-219.42 321.58,-210.9"/>
<polygon fill="black" stroke="black" points="324.84,-209.62 317.5,-201.98 318.47,-212.53 324.84,-209.62"/>
</g>
<!-- f21 -->
<g id="node22" class="node">
<title>f21</title>
<ellipse fill="none" stroke="black" cx="816.05" cy="-254.5" rx="90.25" ry="18"/>
<text text-anchor="middle" x="816.05" y="-249.45" font-family="Times,serif" font-size="14.00">__wasi_fd_fdstat_get</text>
</g>
<!-- f21&#45;&gt;f3 -->
<g id="edge35" class="edge">
<title>f21&#45;&gt;f3</title>
<path fill="none" stroke="black" d="M832.03,-236.55C839.86,-228.25 849.44,-218.08 858.12,-208.88"/>
<polygon fill="black" stroke="black" points="860.41,-211.55 864.73,-201.88 855.32,-206.75 860.41,-211.55"/>
</g>
<!-- f22 -->
<g id="node23" class="node">
<title>f22</title>
<ellipse fill="none" stroke="black" cx="1142.05" cy="-254.5" rx="70.29" ry="18"/>
<text text-anchor="middle" x="1142.05" y="-249.45" font-family="Times,serif" font-size="14.00">__wasi_fd_seek</text>
</g>
<!-- f22&#45;&gt;f4 -->
<g id="edge36" class="edge">
<title>f22&#45;&gt;f4</title>
<path fill="none" stroke="black" d="M1174.31,-238.14C1194.45,-228.55 1220.69,-216.05 1243,-205.43"/>
<polygon fill="black" stroke="black" points="1244.37,-208.65 1251.89,-201.19 1241.36,-202.33 1244.37,-208.65"/>
</g>
<!-- f23 -->
<g id="node24" class="node">
<title>f23</title>
<ellipse fill="none" stroke="black" cx="587.05" cy="-182.5" rx="72.85" ry="18"/>
<text text-anchor="middle" x="587.05" y="-177.45" font-family="Times,serif" font-size="14.00">__wasi_fd_write</text>
</g>
<!-- f23&#45;&gt;f5 -->
<g id="edge37" class="edge">
<title>f23&#45;&gt;f5</title>
<path fill="none" stroke="black" d="M596.94,-164.2C601.4,-156.4 606.76,-147.01 611.72,-138.33"/>
<polygon fill="black" stroke="black" points="614.6,-140.34 616.53,-129.92 608.53,-136.86 614.6,-140.34"/>
</g>
<!-- f24&#45;&gt;f6 -->
<g id="edge38" class="edge">
<title>f24&#45;&gt;f6</title>
<path fill="none" stroke="black" d="M1766.12,-961.79C1800.96,-938.64 1857.05,-892.57 1857.05,-836 1857.05,-836 1857.05,-836 1857.05,-253.5 1857.05,-199.53 1908.92,-158.06 1948.6,-134.24"/>
<polygon fill="black" stroke="black" points="1950.18,-137.37 1957.07,-129.32 1946.67,-131.31 1950.18,-137.37"/>
</g>
<!-- f25 -->
<g id="node26" class="node">
<title>f25</title>
<ellipse fill="none" stroke="black" cx="1394.05" cy="-619" rx="29.86" ry="18"/>
<text text-anchor="middle" x="1394.05" y="-613.95" font-family="Times,serif" font-size="14.00">abort</text>
</g>
<!-- f26&#45;&gt;f25 -->
<g id="edge39" class="edge">
<title>f26&#45;&gt;f25</title>
<path fill="none" stroke="black" d="M1318.38,-892.38C1329.07,-882.54 1342.43,-868.34 1350.05,-853 1383.79,-785.13 1391.76,-694.36 1393.57,-648.74"/>
<polygon fill="black" stroke="black" points="1397.07,-649 1393.88,-638.9 1390.07,-648.78 1397.07,-649"/>
</g>
<!-- f27 -->
<g id="node28" class="node">
<title>f27</title>
<ellipse fill="none" stroke="black" cx="492.05" cy="-547" rx="40.09" ry="18"/>
<text text-anchor="middle" x="492.05" y="-541.95" font-family="Times,serif" font-size="14.00">dummy</text>
</g>
<!-- f28&#45;&gt;f27 -->
<g id="edge40" class="edge">
<title>f28&#45;&gt;f27</title>
<path fill="none" stroke="black" d="M459.68,-600.7C464.6,-592.7 470.54,-583.02 475.99,-574.15"/>
<polygon fill="black" stroke="black" points="478.8,-576.26 481.05,-565.91 472.83,-572.6 478.8,-576.26"/>
</g>
<!-- f40 -->
<g id="node41" class="node">
<title>f40</title>
<ellipse fill="none" stroke="black" cx="377.05" cy="-547" rx="56.47" ry="18"/>
<text text-anchor="middle" x="377.05" y="-541.95" font-family="Times,serif" font-size="14.00">__stdio_exit</text>
</g>
<!-- f28&#45;&gt;f40 -->
<g id="edge41" class="edge">
<title>f28&#45;&gt;f40</title>
<path fill="none" stroke="black" d="M431.62,-601.05C422.74,-592.42 411.78,-581.76 402.01,-572.27"/>
<polygon fill="black" stroke="black" points="404.52,-569.82 394.91,-565.36 399.64,-574.84 404.52,-569.82"/>
</g>
<!-- f51 -->
<g id="node52" class="node">
<title>f51</title>
<ellipse fill="none" stroke="black" cx="1007.05" cy="-907" rx="39.07" ry="18"/>
<text text-anchor="middle" x="1007.05" y="-901.95" font-family="Times,serif" font-size="14.00">vfprintf</text>
</g>
<!-- f29&#45;&gt;f51 -->
<g id="edge42" class="edge">
<title>f29&#45;&gt;f51</title>
<path fill="none" stroke="black" d="M1025.24,-961.05C1022.66,-953.52 1019.54,-944.44 1016.63,-935.94"/>
<polygon fill="black" stroke="black" points="1020.02,-935.03 1013.47,-926.71 1013.4,-937.3 1020.02,-935.03"/>
</g>
<!-- f30 -->
<g id="node31" class="node">
<title>f30</title>
<ellipse fill="none" stroke="black" cx="125.05" cy="-254.5" rx="125.05" ry="18"/>
<text text-anchor="middle" x="125.05" y="-249.45" font-family="Times,serif" font-size="14.00">__wasilibc_populate_preopens</text>
</g>
<!-- f31 -->
<g id="node32" class="node">
<title>f31</title>
<ellipse fill="none" stroke="black" cx="341.05" cy="-326.5" rx="29.86" ry="18"/>
<text text-anchor="middle" x="341.05" y="-321.45" font-family="Times,serif" font-size="14.00">close</text>
</g>
<!-- f31&#45;&gt;f20 -->
<g id="edge44" class="edge">
<title>f31&#45;&gt;f20</title>
<path fill="none" stroke="black" d="M341.05,-308.2C341.05,-300.91 341.05,-292.23 341.05,-284.04"/>
<polygon fill="black" stroke="black" points="344.55,-284.12 341.05,-274.12 337.55,-284.12 344.55,-284.12"/>
</g>
<!-- f31&#45;&gt;f30 -->
<g id="edge43" class="edge">
<title>f31&#45;&gt;f30</title>
<path fill="none" stroke="black" d="M315,-317.06C283,-306.69 227.72,-288.77 185.02,-274.93"/>
<polygon fill="black" stroke="black" points="186.21,-271.64 175.62,-271.89 184.05,-278.3 186.21,-271.64"/>
</g>
<!-- f32 -->
<g id="node33" class="node">
<title>f32</title>
<ellipse fill="none" stroke="black" cx="418.05" cy="-398.5" rx="61.59" ry="18"/>
<text text-anchor="middle" x="418.05" y="-393.45" font-family="Times,serif" font-size="14.00">__stdio_close</text>
</g>
<!-- f32&#45;&gt;f31 -->
<g id="edge45" class="edge">
<title>f32&#45;&gt;f31</title>
<path fill="none" stroke="black" d="M399.8,-380.91C389.56,-371.6 376.63,-359.85 365.52,-349.74"/>
<polygon fill="black" stroke="black" points="367.95,-347.23 358.2,-343.09 363.24,-352.41 367.95,-347.23"/>
</g>
<!-- f33 -->
<g id="node34" class="node">
<title>f33</title>
<ellipse fill="none" stroke="black" cx="588.05" cy="-254.5" rx="34.46" ry="18"/>
<text text-anchor="middle" x="588.05" y="-249.45" font-family="Times,serif" font-size="14.00">writev</text>
</g>
<!-- f33&#45;&gt;f23 -->
<g id="edge46" class="edge">
<title>f33&#45;&gt;f23</title>
<path fill="none" stroke="black" d="M587.8,-236.2C587.7,-228.91 587.58,-220.23 587.46,-212.04"/>
<polygon fill="black" stroke="black" points="590.96,-212.07 587.32,-202.12 583.96,-212.17 590.96,-212.07"/>
</g>
<!-- f34 -->
<g id="node35" class="node">
<title>f34</title>
<ellipse fill="none" stroke="black" cx="590.05" cy="-326.5" rx="61.59" ry="18"/>
<text text-anchor="middle" x="590.05" y="-321.45" font-family="Times,serif" font-size="14.00">__stdio_write</text>
</g>
<!-- f34&#45;&gt;f33 -->
<g id="edge47" class="edge">
<title>f34&#45;&gt;f33</title>
<path fill="none" stroke="black" d="M589.56,-308.2C589.35,-300.91 589.1,-292.23 588.87,-284.04"/>
<polygon fill="black" stroke="black" points="592.37,-284.01 588.58,-274.12 585.37,-284.21 592.37,-284.01"/>
</g>
<!-- f35 -->
<g id="node36" class="node">
<title>f35</title>
<ellipse fill="none" stroke="black" cx="772.05" cy="-326.5" rx="40.09" ry="18"/>
<text text-anchor="middle" x="772.05" y="-321.45" font-family="Times,serif" font-size="14.00">__isatty</text>
</g>
<!-- f35&#45;&gt;f21 -->
<g id="edge48" class="edge">
<title>f35&#45;&gt;f21</title>
<path fill="none" stroke="black" d="M782.48,-308.91C787.5,-300.92 793.65,-291.14 799.3,-282.14"/>
<polygon fill="black" stroke="black" points="802.23,-284.07 804.59,-273.74 796.3,-280.34 802.23,-284.07"/>
</g>
<!-- f36 -->
<g id="node37" class="node">
<title>f36</title>
<ellipse fill="none" stroke="black" cx="684.05" cy="-398.5" rx="66.19" ry="18"/>
<text text-anchor="middle" x="684.05" y="-393.45" font-family="Times,serif" font-size="14.00">__stdout_write</text>
</g>
<!-- f36&#45;&gt;f34 -->
<g id="edge50" class="edge">
<title>f36&#45;&gt;f34</title>
<path fill="none" stroke="black" d="M662.25,-381.26C649.91,-372.08 634.28,-360.44 620.73,-350.34"/>
<polygon fill="black" stroke="black" points="623.06,-347.72 612.95,-344.55 618.88,-353.33 623.06,-347.72"/>
</g>
<!-- f36&#45;&gt;f35 -->
<g id="edge49" class="edge">
<title>f36&#45;&gt;f35</title>
<path fill="none" stroke="black" d="M704.46,-381.26C716.23,-371.9 731.19,-360 744.05,-349.78"/>
<polygon fill="black" stroke="black" points="746.13,-352.6 751.77,-343.63 741.77,-347.12 746.13,-352.6"/>
</g>
<!-- f37 -->
<g id="node38" class="node">
<title>f37</title>
<ellipse fill="none" stroke="black" cx="910.05" cy="-326.5" rx="39.07" ry="18"/>
<text text-anchor="middle" x="910.05" y="-321.45" font-family="Times,serif" font-size="14.00">__lseek</text>
</g>
<!-- f37&#45;&gt;f22 -->
<g id="edge51" class="edge">
<title>f37&#45;&gt;f22</title>
<path fill="none" stroke="black" d="M941.82,-315.91C979.2,-304.64 1041.88,-285.72 1087.17,-272.06"/>
<polygon fill="black" stroke="black" points="1087.98,-275.47 1096.55,-269.23 1085.96,-268.77 1087.98,-275.47"/>
</g>
<!-- f38 -->
<g id="node39" class="node">
<title>f38</title>
<ellipse fill="none" stroke="black" cx="873.05" cy="-398.5" rx="59.03" ry="18"/>
<text text-anchor="middle" x="873.05" y="-393.45" font-family="Times,serif" font-size="14.00">__stdio_seek</text>
</g>
<!-- f38&#45;&gt;f37 -->
<g id="edge52" class="edge">
<title>f38&#45;&gt;f37</title>
<path fill="none" stroke="black" d="M882.01,-380.55C886.19,-372.64 891.27,-363.04 895.95,-354.19"/>
<polygon fill="black" stroke="black" points="898.89,-356.1 900.47,-345.63 892.7,-352.83 898.89,-356.1"/>
</g>
<!-- f39 -->
<g id="node40" class="node">
<title>f39</title>
<ellipse fill="none" stroke="black" cx="357.05" cy="-470.5" rx="50.84" ry="18"/>
<text text-anchor="middle" x="357.05" y="-465.45" font-family="Times,serif" font-size="14.00">__ofl_lock</text>
</g>
<!-- f40&#45;&gt;f39 -->
<g id="edge53" class="edge">
<title>f40&#45;&gt;f39</title>
<path fill="none" stroke="black" d="M372.41,-528.72C370.09,-520.07 367.22,-509.38 364.59,-499.59"/>
<polygon fill="black" stroke="black" points="368.03,-498.9 362.06,-490.15 361.27,-500.71 368.03,-498.9"/>
</g>
<!-- table0_(iii)i -->
<g id="node62" class="node">
<title>table0_(iii)i</title>
<polygon fill="none" stroke="black" points="624.05,-488.5 570.05,-488.5 570.05,-452.5 624.05,-452.5 624.05,-488.5"/>
<text text-anchor="middle" x="597.05" y="-465.45" font-family="Times,serif" font-size="14.00">(iii)i</text>
</g>
<!-- f40&#45;&gt;table0_(iii)i -->
<g id="edge54" class="edge">
<title>f40&#45;&gt;table0_(iii)i</title>
<path fill="none" stroke="purple" d="M418,-534.21C426.23,-532.19 434.87,-530.32 443.05,-529 469,-524.82 538.05,-533.71 561.05,-521 570.28,-515.9 577.76,-507.32 583.46,-498.73"/>
<polygon fill="purple" stroke="purple" points="586.47,-500.52 588.56,-490.14 580.45,-496.95 586.47,-500.52"/>
</g>
<!-- table0_(iIi)I -->
<g id="node64" class="node">
<title>table0_(iIi)I</title>
<polygon fill="none" stroke="black" points="552.05,-488.5 498.05,-488.5 498.05,-452.5 552.05,-452.5 552.05,-488.5"/>
<text text-anchor="middle" x="525.05" y="-465.45" font-family="Times,serif" font-size="14.00">(iIi)I</text>
</g>
<!-- f40&#45;&gt;table0_(iIi)I -->
<g id="edge55" class="edge">
<title>f40&#45;&gt;table0_(iIi)I</title>
<path fill="none" stroke="purple" d="M419.18,-534.61C427.09,-532.63 435.3,-530.67 443.05,-529 463.34,-524.63 471.44,-531.97 489.05,-521 497.87,-515.51 505.2,-506.99 510.9,-498.56"/>
<polygon fill="purple" stroke="purple" points="513.79,-500.54 516.03,-490.19 507.82,-496.88 513.79,-500.54"/>
</g>
<!-- f41 -->
<g id="node42" class="node">
<title>f41</title>
<ellipse fill="none" stroke="black" cx="1070.05" cy="-470.5" rx="46.23" ry="18"/>
<text text-anchor="middle" x="1070.05" y="-465.45" font-family="Times,serif" font-size="14.00">__towrite</text>
</g>
<!-- f42 -->
<g id="node43" class="node">
<title>f42</title>
<ellipse fill="none" stroke="black" cx="892.05" cy="-547" rx="46.75" ry="18"/>
<text text-anchor="middle" x="892.05" y="-541.95" font-family="Times,serif" font-size="14.00">__fwritex</text>
</g>
<!-- f42&#45;&gt;f41 -->
<g id="edge56" class="edge">
<title>f42&#45;&gt;f41</title>
<path fill="none" stroke="black" d="M927.52,-534.94C934.32,-532.9 941.39,-530.84 948.05,-529 962.18,-525.09 966.4,-526.35 980.05,-521 999.71,-513.29 1020.44,-502.12 1037.04,-492.34"/>
<polygon fill="black" stroke="black" points="1038.74,-495.41 1045.5,-487.25 1035.13,-489.41 1038.74,-495.41"/>
</g>
<!-- f56 -->
<g id="node57" class="node">
<title>f56</title>
<ellipse fill="none" stroke="black" cx="927.05" cy="-470.5" rx="43.67" ry="18"/>
<text text-anchor="middle" x="927.05" y="-465.45" font-family="Times,serif" font-size="14.00">memcpy</text>
</g>
<!-- f42&#45;&gt;f56 -->
<g id="edge58" class="edge">
<title>f42&#45;&gt;f56</title>
<path fill="none" stroke="black" d="M899.99,-529.09C904.17,-520.2 909.4,-509.08 914.14,-498.99"/>
<polygon fill="black" stroke="black" points="917.29,-500.51 918.38,-489.97 910.96,-497.53 917.29,-500.51"/>
</g>
<!-- f42&#45;&gt;table0_(iii)i -->
<g id="edge57" class="edge">
<title>f42&#45;&gt;table0_(iii)i</title>
<path fill="none" stroke="purple" d="M853.79,-536.34C797.2,-522.05 691.8,-495.43 635.25,-481.15"/>
<polygon fill="purple" stroke="purple" points="636.31,-477.8 625.76,-478.75 634.6,-484.59 636.31,-477.8"/>
</g>
<!-- f43 -->
<g id="node44" class="node">
<title>f43</title>
<ellipse fill="none" stroke="black" cx="1070.05" cy="-547" rx="32.93" ry="18"/>
<text text-anchor="middle" x="1070.05" y="-541.95" font-family="Times,serif" font-size="14.00">fwrite</text>
</g>
<!-- f43&#45;&gt;f41 -->
<g id="edge59" class="edge">
<title>f43&#45;&gt;f41</title>
<path fill="none" stroke="black" d="M1070.05,-528.72C1070.05,-520.32 1070.05,-509.99 1070.05,-500.43"/>
<polygon fill="black" stroke="black" points="1073.55,-500.46 1070.05,-490.46 1066.55,-500.46 1073.55,-500.46"/>
</g>
<!-- f43&#45;&gt;f56 -->
<g id="edge61" class="edge">
<title>f43&#45;&gt;f56</title>
<path fill="none" stroke="black" d="M1044.65,-535C1035.26,-530.79 1024.59,-525.84 1015.05,-521 996.8,-511.74 976.89,-500.63 960.63,-491.28"/>
<polygon fill="black" stroke="black" points="962.75,-488.46 952.34,-486.48 959.24,-494.52 962.75,-488.46"/>
</g>
<!-- f43&#45;&gt;table0_(iii)i -->
<g id="edge60" class="edge">
<title>f43&#45;&gt;table0_(iii)i</title>
<path fill="none" stroke="purple" d="M1045.62,-534.53C1039.96,-532.32 1033.89,-530.29 1028.05,-529 961.14,-514.16 942.14,-528.82 874.05,-521 788.14,-511.13 688.6,-491.24 635.36,-479.91"/>
<polygon fill="purple" stroke="purple" points="636.4,-476.55 625.89,-477.88 634.93,-483.4 636.4,-476.55"/>
</g>
<!-- f44 -->
<g id="node45" class="node">
<title>f44</title>
<ellipse fill="none" stroke="black" cx="879.05" cy="-619" rx="40.09" ry="18"/>
<text text-anchor="middle" x="879.05" y="-613.95" font-family="Times,serif" font-size="14.00">dummy</text>
</g>
<!-- f45 -->
<g id="node46" class="node">
<title>f45</title>
<ellipse fill="none" stroke="black" cx="879.05" cy="-691" rx="44.7" ry="18"/>
<text text-anchor="middle" x="879.05" y="-685.95" font-family="Times,serif" font-size="14.00">__lctrans</text>
</g>
<!-- f45&#45;&gt;f44 -->
<g id="edge62" class="edge">
<title>f45&#45;&gt;f44</title>
<path fill="none" stroke="black" d="M879.05,-672.7C879.05,-665.41 879.05,-656.73 879.05,-648.54"/>
<polygon fill="black" stroke="black" points="882.55,-648.62 879.05,-638.62 875.55,-648.62 882.55,-648.62"/>
</g>
<!-- f46 -->
<g id="node47" class="node">
<title>f46</title>
<ellipse fill="none" stroke="black" cx="958.05" cy="-763" rx="38.04" ry="18"/>
<text text-anchor="middle" x="958.05" y="-757.95" font-family="Times,serif" font-size="14.00">strerror</text>
</g>
<!-- f46&#45;&gt;f45 -->
<g id="edge63" class="edge">
<title>f46&#45;&gt;f45</title>
<path fill="none" stroke="black" d="M940.91,-746.81C930.57,-737.65 917.18,-725.78 905.5,-715.43"/>
<polygon fill="black" stroke="black" points="907.92,-712.9 898.12,-708.89 903.28,-718.14 907.92,-712.9"/>
</g>
<!-- f47 -->
<g id="node48" class="node">
<title>f47</title>
<ellipse fill="none" stroke="black" cx="632.05" cy="-691" rx="44.19" ry="18"/>
<text text-anchor="middle" x="632.05" y="-685.95" font-family="Times,serif" font-size="14.00">wcrtomb</text>
</g>
<!-- f48 -->
<g id="node49" class="node">
<title>f48</title>
<ellipse fill="none" stroke="black" cx="633.05" cy="-763" rx="41.12" ry="18"/>
<text text-anchor="middle" x="633.05" y="-757.95" font-family="Times,serif" font-size="14.00">wctomb</text>
</g>
<!-- f48&#45;&gt;f47 -->
<g id="edge64" class="edge">
<title>f48&#45;&gt;f47</title>
<path fill="none" stroke="black" d="M632.8,-744.7C632.7,-737.41 632.58,-728.73 632.46,-720.54"/>
<polygon fill="black" stroke="black" points="635.96,-720.57 632.32,-710.62 628.96,-720.67 635.96,-720.57"/>
</g>
<!-- f49 -->
<g id="node50" class="node">
<title>f49</title>
<ellipse fill="none" stroke="black" cx="854.05" cy="-763" rx="30.37" ry="18"/>
<text text-anchor="middle" x="854.05" y="-757.95" font-family="Times,serif" font-size="14.00">frexp</text>
</g>
<!-- f49&#45;&gt;f49 -->
<g id="edge65" class="edge">
<title>f49&#45;&gt;f49</title>
<path fill="none" stroke="black" d="M876.44,-775.66C889.82,-778.47 902.42,-774.25 902.42,-763 902.42,-755.09 896.19,-750.66 887.84,-749.7"/>
<polygon fill="black" stroke="black" points="887.74,-746.2 877.95,-750.26 888.13,-753.19 887.74,-746.2"/>
</g>
<!-- f50 -->
<g id="node51" class="node">
<title>f50</title>
<ellipse fill="none" stroke="black" cx="1070.05" cy="-619" rx="29.34" ry="18"/>
<text text-anchor="middle" x="1070.05" y="-613.95" font-family="Times,serif" font-size="14.00">fputs</text>
</g>
<!-- f50&#45;&gt;f43 -->
<g id="edge67" class="edge">
<title>f50&#45;&gt;f43</title>
<path fill="none" stroke="black" d="M1070.05,-600.7C1070.05,-593.41 1070.05,-584.73 1070.05,-576.54"/>
<polygon fill="black" stroke="black" points="1073.55,-576.62 1070.05,-566.62 1066.55,-576.62 1073.55,-576.62"/>
</g>
<!-- f58 -->
<g id="node59" class="node">
<title>f58</title>
<ellipse fill="none" stroke="black" cx="988.05" cy="-547" rx="31.39" ry="18"/>
<text text-anchor="middle" x="988.05" y="-541.95" font-family="Times,serif" font-size="14.00">strlen</text>
</g>
<!-- f50&#45;&gt;f58 -->
<g id="edge66" class="edge">
<title>f50&#45;&gt;f58</title>
<path fill="none" stroke="black" d="M1053.46,-603.83C1041.97,-594.03 1026.48,-580.8 1013.45,-569.68"/>
<polygon fill="black" stroke="black" points="1015.93,-567.2 1006.05,-563.37 1011.39,-572.52 1015.93,-567.2"/>
</g>
<!-- f51&#45;&gt;f41 -->
<g id="edge69" class="edge">
<title>f51&#45;&gt;f41</title>
<path fill="none" stroke="black" d="M1046.41,-906.46C1133.74,-905.23 1336.05,-888.89 1336.05,-764 1336.05,-764 1336.05,-764 1336.05,-618 1336.05,-522.78 1203.64,-489 1125.66,-477.36"/>
<polygon fill="black" stroke="black" points="1126.46,-473.94 1116.07,-476.01 1125.49,-480.87 1126.46,-473.94"/>
</g>
<!-- f52 -->
<g id="node53" class="node">
<title>f52</title>
<ellipse fill="none" stroke="black" cx="958.05" cy="-835" rx="51.86" ry="18"/>
<text text-anchor="middle" x="958.05" y="-829.95" font-family="Times,serif" font-size="14.00">printf_core</text>
</g>
<!-- f51&#45;&gt;f52 -->
<g id="edge68" class="edge">
<title>f51&#45;&gt;f52</title>
<path fill="none" stroke="black" d="M995.44,-889.41C989.79,-881.34 982.85,-871.43 976.5,-862.35"/>
<polygon fill="black" stroke="black" points="979.39,-860.38 970.79,-854.2 973.66,-864.4 979.39,-860.38"/>
</g>
<!-- f51&#45;&gt;table0_(iii)i -->
<g id="edge70" class="edge">
<title>f51&#45;&gt;table0_(iii)i</title>
<path fill="none" stroke="purple" d="M968.94,-902.17C860.84,-890.28 560.05,-849.5 560.05,-764 560.05,-764 560.05,-764 560.05,-618 560.05,-575.62 574.79,-528.39 585.66,-499.3"/>
<polygon fill="purple" stroke="purple" points="588.86,-500.73 589.2,-490.14 582.33,-498.21 588.86,-500.73"/>
</g>
<!-- f52&#45;&gt;f42 -->
<g id="edge71" class="edge">
<title>f52&#45;&gt;f42</title>
<path fill="none" stroke="black" d="M908.22,-829.72C875.84,-824.05 835.92,-810.99 815.05,-781 793.83,-750.5 766.36,-722.25 830.05,-601 836.59,-588.56 847.37,-577.8 858.12,-569.29"/>
<polygon fill="black" stroke="black" points="859.88,-572.34 865.84,-563.58 855.72,-566.72 859.88,-572.34"/>
</g>
<!-- f52&#45;&gt;f46 -->
<g id="edge73" class="edge">
<title>f52&#45;&gt;f46</title>
<path fill="none" stroke="black" d="M958.05,-816.7C958.05,-809.41 958.05,-800.73 958.05,-792.54"/>
<polygon fill="black" stroke="black" points="961.55,-792.62 958.05,-782.62 954.55,-792.62 961.55,-792.62"/>
</g>
<!-- f52&#45;&gt;f48 -->
<g id="edge75" class="edge">
<title>f52&#45;&gt;f48</title>
<path fill="none" stroke="black" d="M911.67,-826.56C857.42,-817.47 765.11,-800.85 687.05,-781 683.48,-780.09 679.8,-779.08 676.11,-778.03"/>
<polygon fill="black" stroke="black" points="677.18,-774.7 666.6,-775.19 675.18,-781.4 677.18,-774.7"/>
</g>
<!-- f52&#45;&gt;f49 -->
<g id="edge77" class="edge">
<title>f52&#45;&gt;f49</title>
<path fill="none" stroke="black" d="M934.97,-818.46C919.56,-808.09 899.19,-794.38 882.74,-783.31"/>
<polygon fill="black" stroke="black" points="885.08,-780.67 874.83,-777.99 881.17,-786.47 885.08,-780.67"/>
</g>
<!-- f53 -->
<g id="node54" class="node">
<title>f53</title>
<ellipse fill="none" stroke="black" cx="1165.05" cy="-763" rx="41.12" ry="18"/>
<text text-anchor="middle" x="1165.05" y="-757.95" font-family="Times,serif" font-size="14.00">pop_arg</text>
</g>
<!-- f52&#45;&gt;f53 -->
<g id="edge72" class="edge">
<title>f52&#45;&gt;f53</title>
<path fill="none" stroke="black" d="M994.11,-821.81C1029.85,-809.72 1084.59,-791.21 1122.46,-778.4"/>
<polygon fill="black" stroke="black" points="1123.35,-781.8 1131.71,-775.28 1121.11,-775.16 1123.35,-781.8"/>
</g>
<!-- f54 -->
<g id="node55" class="node">
<title>f54</title>
<ellipse fill="none" stroke="black" cx="1041.05" cy="-763" rx="27" ry="18"/>
<text text-anchor="middle" x="1041.05" y="-757.95" font-family="Times,serif" font-size="14.00">pad</text>
</g>
<!-- f52&#45;&gt;f54 -->
<g id="edge78" class="edge">
<title>f52&#45;&gt;f54</title>
<path fill="none" stroke="black" d="M976.89,-818.12C988.51,-808.31 1003.55,-795.62 1016.15,-785"/>
<polygon fill="black" stroke="black" points="1018.27,-787.79 1023.66,-778.67 1013.76,-782.44 1018.27,-787.79"/>
</g>
<!-- f52&#45;&gt;f57 -->
<g id="edge76" class="edge">
<title>f52&#45;&gt;f57</title>
<path fill="none" stroke="black" d="M1003.92,-826.2C1030.13,-819.14 1060.92,-805.85 1077.05,-781 1085.77,-767.58 1083.38,-759.7 1077.05,-745 1071.78,-732.76 1062.15,-722.03 1052.34,-713.48"/>
<polygon fill="black" stroke="black" points="1054.55,-710.77 1044.57,-707.21 1050.16,-716.22 1054.55,-710.77"/>
</g>
<!-- f60 -->
<g id="node61" class="node">
<title>f60</title>
<ellipse fill="none" stroke="black" cx="732.05" cy="-763" rx="36" ry="18"/>
<text text-anchor="middle" x="732.05" y="-757.95" font-family="Times,serif" font-size="14.00">strnlen</text>
</g>
<!-- f52&#45;&gt;f60 -->
<g id="edge74" class="edge">
<title>f52&#45;&gt;f60</title>
<path fill="none" stroke="black" d="M919.13,-822.71C883.39,-812.24 829,-796.05 782.05,-781 778.75,-779.94 775.34,-778.83 771.92,-777.69"/>
<polygon fill="black" stroke="black" points="773.11,-774.4 762.51,-774.54 770.88,-781.04 773.11,-774.4"/>
</g>
<!-- f55 -->
<g id="node56" class="node">
<title>f55</title>
<ellipse fill="none" stroke="black" cx="1194.05" cy="-691" rx="114.3" ry="18"/>
<text text-anchor="middle" x="1194.05" y="-685.95" font-family="Times,serif" font-size="14.00">long_double_not_supported</text>
</g>
<!-- f53&#45;&gt;f55 -->
<g id="edge79" class="edge">
<title>f53&#45;&gt;f55</title>
<path fill="none" stroke="black" d="M1172.07,-745.05C1175.23,-737.43 1179.04,-728.23 1182.6,-719.65"/>
<polygon fill="black" stroke="black" points="1185.72,-721.25 1186.32,-710.67 1179.25,-718.57 1185.72,-721.25"/>
</g>
<!-- f54&#45;&gt;f42 -->
<g id="edge81" class="edge">
<title>f54&#45;&gt;f42</title>
<path fill="none" stroke="black" d="M1020.85,-750.86C1005.41,-741.45 984.53,-726.71 971.05,-709 939.75,-667.9 952.27,-646.64 928.05,-601 923.18,-591.82 917.07,-582.28 911.27,-573.87"/>
<polygon fill="black" stroke="black" points="914.22,-571.97 905.58,-565.83 908.5,-576.01 914.22,-571.97"/>
</g>
<!-- f54&#45;&gt;f57 -->
<g id="edge80" class="edge">
<title>f54&#45;&gt;f57</title>
<path fill="none" stroke="black" d="M1036.21,-745.05C1034.08,-737.6 1031.52,-728.64 1029.12,-720.22"/>
<polygon fill="black" stroke="black" points="1032.52,-719.38 1026.4,-710.73 1025.79,-721.31 1032.52,-719.38"/>
</g>
<!-- f55&#45;&gt;f25 -->
<g id="edge83" class="edge">
<title>f55&#45;&gt;f25</title>
<path fill="none" stroke="black" d="M1239.69,-674.03C1275.52,-661.48 1324.75,-644.26 1357.89,-632.66"/>
<polygon fill="black" stroke="black" points="1358.76,-636.06 1367.04,-629.45 1356.45,-629.45 1358.76,-636.06"/>
</g>
<!-- f55&#45;&gt;f50 -->
<g id="edge82" class="edge">
<title>f55&#45;&gt;f50</title>
<path fill="none" stroke="black" d="M1164.35,-673.23C1145.16,-662.4 1120.24,-648.33 1100.84,-637.38"/>
<polygon fill="black" stroke="black" points="1102.72,-634.42 1092.29,-632.56 1099.28,-640.52 1102.72,-634.42"/>
</g>
<!-- f59 -->
<g id="node60" class="node">
<title>f59</title>
<ellipse fill="none" stroke="black" cx="736.05" cy="-691" rx="42.14" ry="18"/>
<text text-anchor="middle" x="736.05" y="-685.95" font-family="Times,serif" font-size="14.00">memchr</text>
</g>
<!-- f60&#45;&gt;f59 -->
<g id="edge84" class="edge">
<title>f60&#45;&gt;f59</title>
<path fill="none" stroke="black" d="M733.04,-744.7C733.46,-737.41 733.95,-728.73 734.42,-720.54"/>
<polygon fill="black" stroke="black" points="737.91,-720.8 734.99,-710.62 730.92,-720.4 737.91,-720.8"/>
</g>
<!-- table0_(iii)i&#45;&gt;f34 -->
<g id="edge1" class="edge">
<title>table0_(iii)i&#45;&gt;f34</title>
<path fill="none" stroke="purple" d="M596.19,-452.09C595.01,-428.11 592.87,-384.64 591.45,-355.92"/>
<polygon fill="purple" stroke="purple" points="594.96,-355.94 590.97,-346.12 587.97,-356.28 594.96,-355.94"/>
</g>
<!-- table0_(iii)i&#45;&gt;f36 -->
<g id="edge3" class="edge">
<title>table0_(iii)i&#45;&gt;f36</title>
<path fill="none" stroke="purple" d="M618.56,-452.2C629.54,-443.36 643.07,-432.47 654.97,-422.9"/>
<polygon fill="purple" stroke="purple" points="656.91,-425.83 662.51,-416.83 652.53,-420.37 656.91,-425.83"/>
</g>
<!-- table0_(i)i -->
<g id="node63" class="node">
<title>table0_(i)i</title>
<polygon fill="none" stroke="black" points="480.05,-488.5 426.05,-488.5 426.05,-452.5 480.05,-452.5 480.05,-488.5"/>
<text text-anchor="middle" x="453.05" y="-465.45" font-family="Times,serif" font-size="14.00">(i)i</text>
</g>
<!-- table0_(i)i&#45;&gt;f32 -->
<g id="edge2" class="edge">
<title>table0_(i)i&#45;&gt;f32</title>
<path fill="none" stroke="purple" d="M444.4,-452.2C440.59,-444.57 436.01,-435.42 431.75,-426.9"/>
<polygon fill="purple" stroke="purple" points="434.88,-425.34 427.28,-417.96 428.62,-428.47 434.88,-425.34"/>
</g>
<!-- table0_(iIi)I&#45;&gt;f38 -->
<g id="edge4" class="edge">
<title>table0_(iIi)I&#45;&gt;f38</title>
<path fill="none" stroke="purple" d="M546.6,-452.17C551.15,-449.2 556.09,-446.44 561.05,-444.5 643.79,-412.05 671.1,-429.28 759.05,-416.5 775.46,-414.12 793.2,-411.49 809.68,-409.04"/>
<polygon fill="purple" stroke="purple" points="809.98,-412.53 819.35,-407.59 808.95,-405.61 809.98,-412.53"/>
</g>
<!-- export0 -->
<g id="node72" class="node">
<title>export0</title>
<polygon fill="none" stroke="black" points="1597.05,-1285 1543.05,-1285 1543.05,-1249 1597.05,-1249 1597.05,-1285"/>
<text text-anchor="middle" x="1570.05" y="-1261.95" font-family="Times,serif" font-size="14.00">_start</text>
</g>
<!-- export0&#45;&gt;f8 -->
<g id="edge12" class="edge">
<title>export0&#45;&gt;f8</title>
<path fill="none" stroke="red" d="M1570.05,-1248.7C1570.05,-1241.41 1570.05,-1232.73 1570.05,-1224.54"/>
<polygon fill="red" stroke="red" points="1573.55,-1224.62 1570.05,-1214.62 1566.55,-1224.62 1573.55,-1224.62"/>
</g>
</g>
</svg>
