<?xml version="1.0" encoding="UTF-8" standalone="no"?>
<!DOCTYPE svg PUBLIC "-//W3C//DTD SVG 1.1//EN"
 "http://www.w3.org/Graphics/SVG/1.1/DTD/svg11.dtd">
<!-- Generated by graphviz version 11.0.0 (20240428.1522)
 -->
<!-- Pages: 1 -->
<svg width="2190pt" height="1334pt"
 viewBox="0.00 0.00 2189.61 1333.50" xmlns="http://www.w3.org/2000/svg" xmlns:xlink="http://www.w3.org/1999/xlink">
<g id="graph0" class="graph" transform="scale(1 1) rotate(0) translate(4 1329.5)">
<polygon fill="white" stroke="none" points="-4,4 -4,-1329.5 2185.61,-1329.5 2185.61,4 -4,4"/>
<g id="clust1" class="cluster">
<title>cluster_table_0</title>
<polygon fill="none" stroke="purple" points="416.05,-444.5 416.05,-521 630.05,-521 630.05,-444.5 416.05,-444.5"/>
<text text-anchor="middle" x="523.05" y="-503.7" font-family="Times,serif" font-size="14.00">table_0</text>
</g>
<g id="clust2" class="cluster">
<title>cluster_import_wasi_snapshot_preview1</title>
<polygon fill="none" stroke="blue" points="667.05,-8 667.05,-84.5 1285.05,-84.5 1285.05,-8 667.05,-8"/>
<text text-anchor="middle" x="976.05" y="-67.2" font-family="Times,serif" font-size="14.00">wasi_snapshot_preview1</text>
</g>
<g id="clust3" class="cluster">
<title>cluster_export</title>
<polygon fill="none" stroke="red" points="1591.05,-1241 1591.05,-1317.5 1661.05,-1317.5 1661.05,-1241 1591.05,-1241"/>
<text text-anchor="middle" x="1626.05" y="-1300.2" font-family="Times,serif" font-size="14.00">exports</text>
</g>
<!-- f0 -->
<g id="node1" class="node">
<title>f0</title>
<ellipse fill="none" stroke="blue" cx="1159.05" cy="-110.5" rx="186.98" ry="18"/>
<text text-anchor="middle" x="1159.05" y="-105.45" font-family="Times,serif" font-size="14.00">__imported_wasi_snapshot_preview1_args_get</text>
</g>
<!-- import0 -->
<g id="node65" class="node">
<title>import0</title>
<polygon fill="none" stroke="black" points="1078.93,-52 1017.18,-52 1017.18,-16 1078.93,-16 1078.93,-52"/>
<text text-anchor="middle" x="1048.05" y="-28.95" font-family="Times,serif" font-size="14.00">args_get</text>
</g>
<!-- f0&#45;&gt;import0 -->
<g id="edge77" class="edge">
<title>f0&#45;&gt;import0</title>
<path fill="none" stroke="blue" d="M1102.56,-92.94C1097.46,-90.47 1092.54,-87.67 1088.05,-84.5 1079.26,-78.29 1071.38,-69.65 1064.97,-61.32"/>
<polygon fill="blue" stroke="blue" points="1067.97,-59.49 1059.29,-53.42 1062.29,-63.58 1067.97,-59.49"/>
</g>
<!-- f1 -->
<g id="node2" class="node">
<title>f1</title>
<ellipse fill="none" stroke="blue" cx="1573.05" cy="-110.5" rx="209.5" ry="18"/>
<text text-anchor="middle" x="1573.05" y="-105.45" font-family="Times,serif" font-size="14.00">__imported_wasi_snapshot_preview1_args_sizes_get</text>
</g>
<!-- import1 -->
<g id="node66" class="node">
<title>import1</title>
<polygon fill="none" stroke="black" points="1191.43,-52 1096.68,-52 1096.68,-16 1191.43,-16 1191.43,-52"/>
<text text-anchor="middle" x="1144.05" y="-28.95" font-family="Times,serif" font-size="14.00">args_sizes_get</text>
</g>
<!-- f1&#45;&gt;import1 -->
<g id="edge78" class="edge">
<title>f1&#45;&gt;import1</title>
<path fill="none" stroke="blue" d="M1424.75,-97.42C1401.43,-95.67 1377.59,-93.96 1355.05,-92.5 1320.86,-90.28 1232.83,-97.32 1201.05,-84.5 1187.89,-79.19 1175.67,-69.52 1165.94,-60.12"/>
<polygon fill="blue" stroke="blue" points="1168.62,-57.85 1159.13,-53.13 1163.6,-62.74 1168.62,-57.85"/>
</g>
<!-- f2 -->
<g id="node3" class="node">
<title>f2</title>
<ellipse fill="none" stroke="blue" cx="306.05" cy="-182.5" rx="186.98" ry="18"/>
<text text-anchor="middle" x="306.05" y="-177.45" font-family="Times,serif" font-size="14.00">__imported_wasi_snapshot_preview1_fd_close</text>
</g>
<!-- import2 -->
<g id="node67" class="node">
<title>import2</title>
<polygon fill="none" stroke="black" points="736.93,-52 675.18,-52 675.18,-16 736.93,-16 736.93,-52"/>
<text text-anchor="middle" x="706.05" y="-28.95" font-family="Times,serif" font-size="14.00">fd_close</text>
</g>
<!-- f2&#45;&gt;import2 -->
<g id="edge79" class="edge">
<title>f2&#45;&gt;import2</title>
<path fill="none" stroke="blue" d="M324.31,-164.23C346.87,-143.88 387.3,-110.56 428.05,-92.5 506.72,-57.64 607.38,-43.59 663.45,-38.17"/>
<polygon fill="blue" stroke="blue" points="663.57,-41.68 673.21,-37.28 662.93,-34.7 663.57,-41.68"/>
</g>
<!-- f3 -->
<g id="node4" class="node">
<title>f3</title>
<ellipse fill="none" stroke="blue" cx="879.05" cy="-182.5" rx="204.38" ry="18"/>
<text text-anchor="middle" x="879.05" y="-177.45" font-family="Times,serif" font-size="14.00">__imported_wasi_snapshot_preview1_fd_fdstat_get</text>
</g>
<!-- import3 -->
<g id="node68" class="node">
<title>import3</title>
<polygon fill="none" stroke="black" points="922.68,-52 835.43,-52 835.43,-16 922.68,-16 922.68,-52"/>
<text text-anchor="middle" x="879.05" y="-28.95" font-family="Times,serif" font-size="14.00">fd_fdstat_get</text>
</g>
<!-- f3&#45;&gt;import3 -->
<g id="edge80" class="edge">
<title>f3&#45;&gt;import3</title>
<path fill="none" stroke="blue" d="M879.05,-164.12C879.05,-139.34 879.05,-93.55 879.05,-63.7"/>
<polygon fill="blue" stroke="blue" points="882.55,-63.87 879.05,-53.87 875.55,-63.87 882.55,-63.87"/>
</g>
<!-- f4 -->
<g id="node5" class="node">
<title>f4</title>
<ellipse fill="none" stroke="blue" cx="1286.05" cy="-182.5" rx="184.42" ry="18"/>
<text text-anchor="middle" x="1286.05" y="-177.45" font-family="Times,serif" font-size="14.00">__imported_wasi_snapshot_preview1_fd_seek</text>
</g>
<!-- import4 -->
<g id="node69" class="node">
<title>import4</title>
<polygon fill="none" stroke="black" points="999.05,-52 941.05,-52 941.05,-16 999.05,-16 999.05,-52"/>
<text text-anchor="middle" x="970.05" y="-28.95" font-family="Times,serif" font-size="14.00">fd_seek</text>
</g>
<!-- f4&#45;&gt;import4 -->
<g id="edge81" class="edge">
<title>f4&#45;&gt;import4</title>
<path fill="none" stroke="blue" d="M1161.83,-168.84C1076.49,-158.86 976.27,-144.07 963.05,-128.5 947.94,-110.7 951.96,-83.5 958.42,-63.01"/>
<polygon fill="blue" stroke="blue" points="961.62,-64.45 961.64,-53.85 955.02,-62.12 961.62,-64.45"/>
</g>
<!-- f5 -->
<g id="node6" class="node">
<title>f5</title>
<ellipse fill="none" stroke="blue" cx="624.05" cy="-110.5" rx="186.98" ry="18"/>
<text text-anchor="middle" x="624.05" y="-105.45" font-family="Times,serif" font-size="14.00">__imported_wasi_snapshot_preview1_fd_write</text>
</g>
<!-- import5 -->
<g id="node70" class="node">
<title>import5</title>
<polygon fill="none" stroke="black" points="816.93,-52 755.18,-52 755.18,-16 816.93,-16 816.93,-52"/>
<text text-anchor="middle" x="786.05" y="-28.95" font-family="Times,serif" font-size="14.00">fd_write</text>
</g>
<!-- f5&#45;&gt;import5 -->
<g id="edge82" class="edge">
<title>f5&#45;&gt;import5</title>
<path fill="none" stroke="blue" d="M724.45,-94.93C732.01,-92.04 739.31,-88.6 746.05,-84.5 755.38,-78.82 763.46,-70.16 769.88,-61.65"/>
<polygon fill="blue" stroke="blue" points="772.69,-63.74 775.52,-53.53 766.94,-59.74 772.69,-63.74"/>
</g>
<!-- f6 -->
<g id="node7" class="node">
<title>f6</title>
<ellipse fill="none" stroke="blue" cx="1991.05" cy="-110.5" rx="190.56" ry="18"/>
<text text-anchor="middle" x="1991.05" y="-105.45" font-family="Times,serif" font-size="14.00">__imported_wasi_snapshot_preview1_proc_exit</text>
</g>
<!-- import6 -->
<g id="node71" class="node">
<title>import6</title>
<polygon fill="none" stroke="black" points="1276.55,-52 1209.55,-52 1209.55,-16 1276.55,-16 1276.55,-52"/>
<text text-anchor="middle" x="1243.05" y="-28.95" font-family="Times,serif" font-size="14.00">proc_exit</text>
</g>
<!-- f6&#45;&gt;import6 -->
<g id="edge83" class="edge">
<title>f6&#45;&gt;import6</title>
<path fill="none" stroke="blue" d="M1863.32,-96.78C1692.85,-79.8 1399.5,-50.58 1287.91,-39.47"/>
<polygon fill="blue" stroke="blue" points="1288.57,-36.02 1278.27,-38.51 1287.87,-42.98 1288.57,-36.02"/>
</g>
<!-- f7 -->
<g id="node8" class="node">
<title>f7</title>
<ellipse fill="none" stroke="black" cx="1847.05" cy="-1123" rx="82.57" ry="18"/>
<text text-anchor="middle" x="1847.05" y="-1117.95" font-family="Times,serif" font-size="14.00">__wasm_call_ctors</text>
</g>
<!-- f8 -->
<g id="node9" class="node">
<title>f8</title>
<ellipse fill="none" stroke="black" cx="1626.05" cy="-1195" rx="31.39" ry="18"/>
<text text-anchor="middle" x="1626.05" y="-1189.95" font-family="Times,serif" font-size="14.00">_start</text>
</g>
<!-- f8&#45;&gt;f7 -->
<g id="edge1" class="edge">
<title>f8&#45;&gt;f7</title>
<path fill="none" stroke="black" d="M1653.15,-1185.42C1687.26,-1174.61 1746.71,-1155.78 1790.82,-1141.81"/>
<polygon fill="black" stroke="black" points="1791.76,-1145.18 1800.24,-1138.83 1789.65,-1138.51 1791.76,-1145.18"/>
</g>
<!-- f17 -->
<g id="node10" class="node">
<title>f17</title>
<ellipse fill="none" stroke="black" cx="1458.05" cy="-1123" rx="60.05" ry="18"/>
<text text-anchor="middle" x="1458.05" y="-1117.95" font-family="Times,serif" font-size="14.00">__main_void</text>
</g>
<!-- f8&#45;&gt;f17 -->
<g id="edge2" class="edge">
<title>f8&#45;&gt;f17</title>
<path fill="none" stroke="black" d="M1601.26,-1183.67C1575.35,-1172.87 1534.14,-1155.7 1502.57,-1142.55"/>
<polygon fill="black" stroke="black" points="1504.24,-1139.45 1493.66,-1138.84 1501.55,-1145.91 1504.24,-1139.45"/>
</g>
<!-- f28 -->
<g id="node11" class="node">
<title>f28</title>
<ellipse fill="none" stroke="black" cx="447.05" cy="-619" rx="83.08" ry="18"/>
<text text-anchor="middle" x="447.05" y="-613.95" font-family="Times,serif" font-size="14.00">__wasm_call_dtors</text>
</g>
<!-- f8&#45;&gt;f28 -->
<g id="edge3" class="edge">
<title>f8&#45;&gt;f28</title>
<path fill="none" stroke="black" d="M1594.32,-1193.48C1409.87,-1190.06 484.05,-1167.13 484.05,-1052 484.05,-1052 484.05,-1052 484.05,-762 484.05,-721.25 469.61,-675.98 458.77,-647.75"/>
<polygon fill="black" stroke="black" points="462.04,-646.52 455.1,-638.52 455.54,-649.11 462.04,-646.52"/>
</g>
<!-- f24 -->
<g id="node12" class="node">
<title>f24</title>
<ellipse fill="none" stroke="black" cx="1736.05" cy="-979" rx="76.43" ry="18"/>
<text text-anchor="middle" x="1736.05" y="-973.95" font-family="Times,serif" font-size="14.00">__wasi_proc_exit</text>
</g>
<!-- f8&#45;&gt;f24 -->
<g id="edge4" class="edge">
<title>f8&#45;&gt;f24</title>
<path fill="none" stroke="black" d="M1640.48,-1178.79C1660.78,-1156.51 1697.47,-1112.88 1717.05,-1069 1725.62,-1049.8 1730.42,-1026.51 1733.04,-1008.57"/>
<polygon fill="black" stroke="black" points="1736.48,-1009.26 1734.31,-998.89 1729.54,-1008.35 1736.48,-1009.26"/>
</g>
<!-- f9 -->
<g id="node13" class="node">
<title>f9</title>
<ellipse fill="none" stroke="black" cx="1053.05" cy="-1051" rx="29.86" ry="18"/>
<text text-anchor="middle" x="1053.05" y="-1045.95" font-family="Times,serif" font-size="14.00">main</text>
</g>
<!-- f17&#45;&gt;f9 -->
<g id="edge17" class="edge">
<title>f17&#45;&gt;f9</title>
<path fill="none" stroke="black" d="M1407.17,-1113.21C1325.5,-1099.09 1166.83,-1071.67 1092.84,-1058.88"/>
<polygon fill="black" stroke="black" points="1093.65,-1055.47 1083.2,-1057.21 1092.46,-1062.36 1093.65,-1055.47"/>
</g>
<!-- f10 -->
<g id="node15" class="node">
<title>f10</title>
<ellipse fill="none" stroke="black" cx="1317.05" cy="-1051" rx="36.51" ry="18"/>
<text text-anchor="middle" x="1317.05" y="-1045.95" font-family="Times,serif" font-size="14.00">malloc</text>
</g>
<!-- f17&#45;&gt;f10 -->
<g id="edge14" class="edge">
<title>f17&#45;&gt;f10</title>
<path fill="none" stroke="black" d="M1427.8,-1106.98C1405.63,-1095.97 1375.47,-1081 1352.22,-1069.46"/>
<polygon fill="black" stroke="black" points="1353.94,-1066.41 1343.43,-1065.1 1350.83,-1072.68 1353.94,-1066.41"/>
</g>
<!-- f13 -->
<g id="node19" class="node">
<title>f13</title>
<ellipse fill="none" stroke="black" cx="1399.05" cy="-1051" rx="27" ry="18"/>
<text text-anchor="middle" x="1399.05" y="-1045.95" font-family="Times,serif" font-size="14.00">free</text>
</g>
<!-- f17&#45;&gt;f13 -->
<g id="edge19" class="edge">
<title>f17&#45;&gt;f13</title>
<path fill="none" stroke="black" d="M1443.77,-1105.05C1436.33,-1096.22 1427.1,-1085.28 1418.97,-1075.63"/>
<polygon fill="black" stroke="black" points="1421.7,-1073.44 1412.58,-1068.05 1416.34,-1077.95 1421.7,-1073.44"/>
</g>
<!-- f15 -->
<g id="node21" class="node">
<title>f15</title>
<ellipse fill="none" stroke="black" cx="1230.05" cy="-1051" rx="32.93" ry="18"/>
<text text-anchor="middle" x="1230.05" y="-1045.95" font-family="Times,serif" font-size="14.00">calloc</text>
</g>
<!-- f17&#45;&gt;f15 -->
<g id="edge15" class="edge">
<title>f17&#45;&gt;f15</title>
<path fill="none" stroke="black" d="M1413.01,-1110.81C1374.84,-1100.96 1318.86,-1085.62 1271.05,-1069 1269.25,-1068.37 1267.41,-1067.71 1265.57,-1067.02"/>
<polygon fill="black" stroke="black" points="1267.02,-1063.83 1256.43,-1063.45 1264.47,-1070.35 1267.02,-1063.83"/>
</g>
<!-- f16 -->
<g id="node23" class="node">
<title>f16</title>
<ellipse fill="none" stroke="black" cx="1677.05" cy="-1051" rx="30.88" ry="18"/>
<text text-anchor="middle" x="1677.05" y="-1045.95" font-family="Times,serif" font-size="14.00">_Exit</text>
</g>
<!-- f17&#45;&gt;f16 -->
<g id="edge18" class="edge">
<title>f17&#45;&gt;f16</title>
<path fill="none" stroke="black" d="M1500.49,-1109.92C1535.88,-1099.64 1587.51,-1084.18 1632.05,-1069 1635.09,-1067.96 1638.23,-1066.86 1641.37,-1065.72"/>
<polygon fill="black" stroke="black" points="1642.34,-1069.1 1650.51,-1062.35 1639.92,-1062.53 1642.34,-1069.1"/>
</g>
<!-- f19 -->
<g id="node24" class="node">
<title>f19</title>
<ellipse fill="none" stroke="black" cx="1621.05" cy="-182.5" rx="95.37" ry="18"/>
<text text-anchor="middle" x="1621.05" y="-177.45" font-family="Times,serif" font-size="14.00">__wasi_args_sizes_get</text>
</g>
<!-- f17&#45;&gt;f19 -->
<g id="edge13" class="edge">
<title>f17&#45;&gt;f19</title>
<path fill="none" stroke="black" d="M1511.82,-1114.61C1541.69,-1107.72 1577.13,-1094.47 1599.05,-1069 1625.44,-1038.35 1618.05,-1020.45 1618.05,-980 1618.05,-980 1618.05,-980 1618.05,-325.5 1618.05,-286.23 1619.21,-240.87 1620.09,-212.19"/>
<polygon fill="black" stroke="black" points="1623.58,-212.6 1620.4,-202.5 1616.58,-212.38 1623.58,-212.6"/>
</g>
<!-- f18 -->
<g id="node25" class="node">
<title>f18</title>
<ellipse fill="none" stroke="black" cx="1517.05" cy="-1051" rx="72.85" ry="18"/>
<text text-anchor="middle" x="1517.05" y="-1045.95" font-family="Times,serif" font-size="14.00">__wasi_args_get</text>
</g>
<!-- f17&#45;&gt;f18 -->
<g id="edge16" class="edge">
<title>f17&#45;&gt;f18</title>
<path fill="none" stroke="black" d="M1472.33,-1105.05C1479.29,-1096.8 1487.8,-1086.7 1495.53,-1077.54"/>
<polygon fill="black" stroke="black" points="1498.16,-1079.85 1501.93,-1069.95 1492.8,-1075.34 1498.16,-1079.85"/>
</g>
<!-- f27 -->
<g id="node31" class="node">
<title>f27</title>
<ellipse fill="none" stroke="black" cx="490.05" cy="-547" rx="40.09" ry="18"/>
<text text-anchor="middle" x="490.05" y="-541.95" font-family="Times,serif" font-size="14.00">dummy</text>
</g>
<!-- f28&#45;&gt;f27 -->
<g id="edge28" class="edge">
<title>f28&#45;&gt;f27</title>
<path fill="none" stroke="black" d="M457.68,-600.7C462.6,-592.7 468.54,-583.02 473.99,-574.15"/>
<polygon fill="black" stroke="black" points="476.8,-576.26 479.05,-565.91 470.83,-572.6 476.8,-576.26"/>
</g>
<!-- f40 -->
<g id="node32" class="node">
<title>f40</title>
<ellipse fill="none" stroke="black" cx="375.05" cy="-547" rx="56.47" ry="18"/>
<text text-anchor="middle" x="375.05" y="-541.95" font-family="Times,serif" font-size="14.00">__stdio_exit</text>
</g>
<!-- f28&#45;&gt;f40 -->
<g id="edge29" class="edge">
<title>f28&#45;&gt;f40</title>
<path fill="none" stroke="black" d="M429.62,-601.05C420.74,-592.42 409.78,-581.76 400.01,-572.27"/>
<polygon fill="black" stroke="black" points="402.52,-569.82 392.91,-565.36 397.64,-574.84 402.52,-569.82"/>
</g>
<!-- f24&#45;&gt;f6 -->
<g id="edge26" class="edge">
<title>f24&#45;&gt;f6</title>
<path fill="none" stroke="black" d="M1770.54,-962.62C1813.14,-940.99 1880.05,-897.27 1880.05,-836 1880.05,-836 1880.05,-836 1880.05,-253.5 1880.05,-203.45 1923.39,-160.5 1955.91,-135.33"/>
<polygon fill="black" stroke="black" points="1957.63,-138.41 1963.53,-129.61 1953.43,-132.81 1957.63,-138.41"/>
</g>
<!-- f29 -->
<g id="node14" class="node">
<title>f29</title>
<ellipse fill="none" stroke="black" cx="1027.05" cy="-979" rx="31.39" ry="18"/>
<text text-anchor="middle" x="1027.05" y="-973.95" font-family="Times,serif" font-size="14.00">printf</text>
</g>
<!-- f9&#45;&gt;f29 -->
<g id="edge5" class="edge">
<title>f9&#45;&gt;f29</title>
<path fill="none" stroke="black" d="M1046.76,-1033.05C1043.92,-1025.4 1040.48,-1016.16 1037.29,-1007.56"/>
<polygon fill="black" stroke="black" points="1040.58,-1006.36 1033.81,-998.21 1034.02,-1008.8 1040.58,-1006.36"/>
</g>
<!-- f51 -->
<g id="node33" class="node">
<title>f51</title>
<ellipse fill="none" stroke="black" cx="1003.05" cy="-907" rx="39.07" ry="18"/>
<text text-anchor="middle" x="1003.05" y="-901.95" font-family="Times,serif" font-size="14.00">vfprintf</text>
</g>
<!-- f29&#45;&gt;f51 -->
<g id="edge30" class="edge">
<title>f29&#45;&gt;f51</title>
<path fill="none" stroke="black" d="M1021.24,-961.05C1018.66,-953.52 1015.54,-944.44 1012.63,-935.94"/>
<polygon fill="black" stroke="black" points="1016.02,-935.03 1009.47,-926.71 1009.4,-937.3 1016.02,-935.03"/>
</g>
<!-- f11 -->
<g id="node16" class="node">
<title>f11</title>
<ellipse fill="none" stroke="black" cx="1304.05" cy="-979" rx="43.67" ry="18"/>
<text text-anchor="middle" x="1304.05" y="-973.95" font-family="Times,serif" font-size="14.00">dlmalloc</text>
</g>
<!-- f10&#45;&gt;f11 -->
<g id="edge6" class="edge">
<title>f10&#45;&gt;f11</title>
<path fill="none" stroke="black" d="M1313.84,-1032.7C1312.47,-1025.32 1310.83,-1016.52 1309.3,-1008.25"/>
<polygon fill="black" stroke="black" points="1312.77,-1007.79 1307.5,-998.59 1305.89,-1009.06 1312.77,-1007.79"/>
</g>
<!-- f26 -->
<g id="node17" class="node">
<title>f26</title>
<ellipse fill="none" stroke="black" cx="1299.05" cy="-907" rx="27" ry="18"/>
<text text-anchor="middle" x="1299.05" y="-901.95" font-family="Times,serif" font-size="14.00">sbrk</text>
</g>
<!-- f11&#45;&gt;f26 -->
<g id="edge7" class="edge">
<title>f11&#45;&gt;f26</title>
<path fill="none" stroke="black" d="M1302.82,-960.7C1302.3,-953.41 1301.68,-944.73 1301.09,-936.54"/>
<polygon fill="black" stroke="black" points="1304.59,-936.34 1300.38,-926.61 1297.6,-936.84 1304.59,-936.34"/>
</g>
<!-- f12 -->
<g id="node18" class="node">
<title>f12</title>
<ellipse fill="none" stroke="black" cx="1407.05" cy="-907" rx="63.12" ry="18"/>
<text text-anchor="middle" x="1407.05" y="-901.95" font-family="Times,serif" font-size="14.00">prepend_alloc</text>
</g>
<!-- f11&#45;&gt;f12 -->
<g id="edge8" class="edge">
<title>f11&#45;&gt;f12</title>
<path fill="none" stroke="black" d="M1326.15,-962.98C1340.15,-953.47 1358.51,-940.99 1374.2,-930.33"/>
<polygon fill="black" stroke="black" points="1376,-933.33 1382.31,-924.82 1372.07,-927.54 1376,-933.33"/>
</g>
<!-- f25 -->
<g id="node30" class="node">
<title>f25</title>
<ellipse fill="none" stroke="black" cx="1392.05" cy="-619" rx="29.86" ry="18"/>
<text text-anchor="middle" x="1392.05" y="-613.95" font-family="Times,serif" font-size="14.00">abort</text>
</g>
<!-- f26&#45;&gt;f25 -->
<g id="edge27" class="edge">
<title>f26&#45;&gt;f25</title>
<path fill="none" stroke="black" d="M1315.73,-892.44C1326.64,-882.64 1340.28,-868.45 1348.05,-853 1382.14,-785.3 1389.95,-694.46 1391.65,-648.78"/>
<polygon fill="black" stroke="black" points="1395.15,-649.02 1391.94,-638.92 1388.15,-648.82 1395.15,-649.02"/>
</g>
<!-- f14 -->
<g id="node20" class="node">
<title>f14</title>
<ellipse fill="none" stroke="black" cx="1399.05" cy="-979" rx="32.41" ry="18"/>
<text text-anchor="middle" x="1399.05" y="-973.95" font-family="Times,serif" font-size="14.00">dlfree</text>
</g>
<!-- f13&#45;&gt;f14 -->
<g id="edge9" class="edge">
<title>f13&#45;&gt;f14</title>
<path fill="none" stroke="black" d="M1399.05,-1032.7C1399.05,-1025.41 1399.05,-1016.73 1399.05,-1008.54"/>
<polygon fill="black" stroke="black" points="1402.55,-1008.62 1399.05,-998.62 1395.55,-1008.62 1402.55,-1008.62"/>
</g>
<!-- f15&#45;&gt;f11 -->
<g id="edge10" class="edge">
<title>f15&#45;&gt;f11</title>
<path fill="none" stroke="black" d="M1246.11,-1034.81C1255.7,-1025.74 1268.09,-1014.01 1278.96,-1003.74"/>
<polygon fill="black" stroke="black" points="1281.3,-1006.34 1286.16,-996.93 1276.49,-1001.26 1281.3,-1006.34"/>
</g>
<!-- f57 -->
<g id="node22" class="node">
<title>f57</title>
<ellipse fill="none" stroke="black" cx="1019.05" cy="-691" rx="40.6" ry="18"/>
<text text-anchor="middle" x="1019.05" y="-685.95" font-family="Times,serif" font-size="14.00">memset</text>
</g>
<!-- f15&#45;&gt;f57 -->
<g id="edge11" class="edge">
<title>f15&#45;&gt;f57</title>
<path fill="none" stroke="black" d="M1230.25,-1032.51C1230.55,-1005.71 1231.05,-952.87 1231.05,-908 1231.05,-908 1231.05,-908 1231.05,-834 1231.05,-793.55 1240.13,-774.11 1212.05,-745 1166.56,-697.82 1131.91,-727.56 1069.05,-709 1066.36,-708.2 1063.59,-707.36 1060.81,-706.48"/>
<polygon fill="black" stroke="black" points="1062.16,-703.24 1051.57,-703.47 1060,-709.89 1062.16,-703.24"/>
</g>
<!-- f16&#45;&gt;f24 -->
<g id="edge12" class="edge">
<title>f16&#45;&gt;f24</title>
<path fill="none" stroke="black" d="M1690.15,-1034.46C1697.32,-1025.95 1706.39,-1015.19 1714.57,-1005.48"/>
<polygon fill="black" stroke="black" points="1717.01,-1008.02 1720.78,-998.12 1711.66,-1003.51 1717.01,-1008.02"/>
</g>
<!-- f19&#45;&gt;f1 -->
<g id="edge21" class="edge">
<title>f19&#45;&gt;f1</title>
<path fill="none" stroke="black" d="M1609.19,-164.2C1603.78,-156.31 1597.26,-146.8 1591.26,-138.05"/>
<polygon fill="black" stroke="black" points="1594.18,-136.12 1585.64,-129.85 1588.41,-140.08 1594.18,-136.12"/>
</g>
<!-- f18&#45;&gt;f0 -->
<g id="edge20" class="edge">
<title>f18&#45;&gt;f0</title>
<path fill="none" stroke="black" d="M1513.21,-1032.61C1507.65,-1005.94 1498.05,-953.27 1498.05,-908 1498.05,-908 1498.05,-908 1498.05,-253.5 1498.05,-213.05 1508.3,-192.43 1479.05,-164.5 1464.91,-151 1371.95,-136.55 1289.84,-126.15"/>
<polygon fill="black" stroke="black" points="1290.46,-122.7 1280.1,-124.93 1289.59,-129.65 1290.46,-122.7"/>
</g>
<!-- f20 -->
<g id="node26" class="node">
<title>f20</title>
<ellipse fill="none" stroke="black" cx="341.05" cy="-254.5" rx="72.85" ry="18"/>
<text text-anchor="middle" x="341.05" y="-249.45" font-family="Times,serif" font-size="14.00">__wasi_fd_close</text>
</g>
<!-- f20&#45;&gt;f2 -->
<g id="edge22" class="edge">
<title>f20&#45;&gt;f2</title>
<path fill="none" stroke="black" d="M332.4,-236.2C328.59,-228.57 324.01,-219.42 319.75,-210.9"/>
<polygon fill="black" stroke="black" points="322.88,-209.34 315.28,-201.96 316.62,-212.47 322.88,-209.34"/>
</g>
<!-- f21 -->
<g id="node27" class="node">
<title>f21</title>
<ellipse fill="none" stroke="black" cx="809.05" cy="-254.5" rx="90.25" ry="18"/>
<text text-anchor="middle" x="809.05" y="-249.45" font-family="Times,serif" font-size="14.00">__wasi_fd_fdstat_get</text>
</g>
<!-- f21&#45;&gt;f3 -->
<g id="edge23" class="edge">
<title>f21&#45;&gt;f3</title>
<path fill="none" stroke="black" d="M826,-236.55C834.3,-228.25 844.47,-218.08 853.67,-208.88"/>
<polygon fill="black" stroke="black" points="856.11,-211.39 860.71,-201.85 851.16,-206.44 856.11,-211.39"/>
</g>
<!-- f22 -->
<g id="node28" class="node">
<title>f22</title>
<ellipse fill="none" stroke="black" cx="1220.05" cy="-254.5" rx="70.29" ry="18"/>
<text text-anchor="middle" x="1220.05" y="-249.45" font-family="Times,serif" font-size="14.00">__wasi_fd_seek</text>
</g>
<!-- f22&#45;&gt;f4 -->
<g id="edge24" class="edge">
<title>f22&#45;&gt;f4</title>
<path fill="none" stroke="black" d="M1236.03,-236.55C1243.86,-228.25 1253.44,-218.08 1262.12,-208.88"/>
<polygon fill="black" stroke="black" points="1264.41,-211.55 1268.73,-201.88 1259.32,-206.75 1264.41,-211.55"/>
</g>
<!-- f23 -->
<g id="node29" class="node">
<title>f23</title>
<ellipse fill="none" stroke="black" cx="584.05" cy="-182.5" rx="72.85" ry="18"/>
<text text-anchor="middle" x="584.05" y="-177.45" font-family="Times,serif" font-size="14.00">__wasi_fd_write</text>
</g>
<!-- f23&#45;&gt;f5 -->
<g id="edge25" class="edge">
<title>f23&#45;&gt;f5</title>
<path fill="none" stroke="black" d="M593.94,-164.2C598.4,-156.4 603.76,-147.01 608.72,-138.33"/>
<polygon fill="black" stroke="black" points="611.6,-140.34 613.53,-129.92 605.53,-136.86 611.6,-140.34"/>
</g>
<!-- f39 -->
<g id="node43" class="node">
<title>f39</title>
<ellipse fill="none" stroke="black" cx="355.05" cy="-470.5" rx="50.84" ry="18"/>
<text text-anchor="middle" x="355.05" y="-465.45" font-family="Times,serif" font-size="14.00">__ofl_lock</text>
</g>
<!-- f40&#45;&gt;f39 -->
<g id="edge41" class="edge">
<title>f40&#45;&gt;f39</title>
<path fill="none" stroke="black" d="M370.41,-528.72C368.09,-520.07 365.22,-509.38 362.59,-499.59"/>
<polygon fill="black" stroke="black" points="366.03,-498.9 360.06,-490.15 359.27,-500.71 366.03,-498.9"/>
</g>
<!-- table0_(iii)i -->
<g id="node44" class="node">
<title>table0_(iii)i</title>
<polygon fill="none" stroke="black" points="622.05,-488.5 568.05,-488.5 568.05,-452.5 622.05,-452.5 622.05,-488.5"/>
<text text-anchor="middle" x="595.05" y="-465.45" font-family="Times,serif" font-size="14.00">(iii)i</text>
</g>
<!-- f40&#45;&gt;table0_(iii)i -->
<g id="edge42" class="edge">
<title>f40&#45;&gt;table0_(iii)i</title>
<path fill="none" stroke="purple" d="M416,-534.21C424.23,-532.19 432.87,-530.32 441.05,-529 467,-524.82 536.05,-533.71 559.05,-521 568.28,-515.9 575.76,-507.32 581.46,-498.73"/>
<polygon fill="purple" stroke="purple" points="584.47,-500.52 586.56,-490.14 578.45,-496.95 584.47,-500.52"/>
</g>
<!-- table0_(iIi)I -->
<g id="node45" class="node">
<title>table0_(iIi)I</title>
<polygon fill="none" stroke="black" points="550.05,-488.5 496.05,-488.5 496.05,-452.5 550.05,-452.5 550.05,-488.5"/>
<text text-anchor="middle" x="523.05" y="-465.45" font-family="Times,serif" font-size="14.00">(iIi)I</text>
</g>
<!-- f40&#45;&gt;table0_(iIi)I -->
<g id="edge43" class="edge">
<title>f40&#45;&gt;table0_(iIi)I</title>
<path fill="none" stroke="purple" d="M417.18,-534.61C425.09,-532.63 433.3,-530.67 441.05,-529 461.34,-524.63 469.44,-531.97 487.05,-521 495.87,-515.51 503.2,-506.99 508.9,-498.56"/>
<polygon fill="purple" stroke="purple" points="511.79,-500.54 514.03,-490.19 505.82,-496.88 511.79,-500.54"/>
</g>
<!-- f51&#45;&gt;table0_(iii)i -->
<g id="edge58" class="edge">
<title>f51&#45;&gt;table0_(iii)i</title>
<path fill="none" stroke="purple" d="M965.11,-902.14C857.5,-890.15 558.05,-849.15 558.05,-764 558.05,-764 558.05,-764 558.05,-618 558.05,-575.62 572.79,-528.39 583.66,-499.3"/>
<polygon fill="purple" stroke="purple" points="586.86,-500.73 587.2,-490.14 580.33,-498.21 586.86,-500.73"/>
</g>
<!-- f41 -->
<g id="node46" class="node">
<title>f41</title>
<ellipse fill="none" stroke="black" cx="1068.05" cy="-470.5" rx="46.23" ry="18"/>
<text text-anchor="middle" x="1068.05" y="-465.45" font-family="Times,serif" font-size="14.00">__towrite</text>
</g>
<!-- f51&#45;&gt;f41 -->
<g id="edge57" class="edge">
<title>f51&#45;&gt;f41</title>
<path fill="none" stroke="black" d="M1042.32,-906.56C1130,-905.54 1334.05,-889.69 1334.05,-764 1334.05,-764 1334.05,-764 1334.05,-618 1334.05,-522.78 1201.64,-489 1123.66,-477.36"/>
<polygon fill="black" stroke="black" points="1124.46,-473.94 1114.07,-476.01 1123.49,-480.87 1124.46,-473.94"/>
</g>
<!-- f52 -->
<g id="node58" class="node">
<title>f52</title>
<ellipse fill="none" stroke="black" cx="955.05" cy="-835" rx="51.86" ry="18"/>
<text text-anchor="middle" x="955.05" y="-829.95" font-family="Times,serif" font-size="14.00">printf_core</text>
</g>
<!-- f51&#45;&gt;f52 -->
<g id="edge56" class="edge">
<title>f51&#45;&gt;f52</title>
<path fill="none" stroke="black" d="M991.68,-889.41C986.14,-881.34 979.35,-871.43 973.12,-862.35"/>
<polygon fill="black" stroke="black" points="976.08,-860.47 967.53,-854.2 970.3,-864.43 976.08,-860.47"/>
</g>
<!-- f30 -->
<g id="node34" class="node">
<title>f30</title>
<ellipse fill="none" stroke="black" cx="125.05" cy="-254.5" rx="125.05" ry="18"/>
<text text-anchor="middle" x="125.05" y="-249.45" font-family="Times,serif" font-size="14.00">__wasilibc_populate_preopens</text>
</g>
<!-- f31 -->
<g id="node35" class="node">
<title>f31</title>
<ellipse fill="none" stroke="black" cx="341.05" cy="-326.5" rx="29.86" ry="18"/>
<text text-anchor="middle" x="341.05" y="-321.45" font-family="Times,serif" font-size="14.00">close</text>
</g>
<!-- f31&#45;&gt;f20 -->
<g id="edge32" class="edge">
<title>f31&#45;&gt;f20</title>
<path fill="none" stroke="black" d="M341.05,-308.2C341.05,-300.91 341.05,-292.23 341.05,-284.04"/>
<polygon fill="black" stroke="black" points="344.55,-284.12 341.05,-274.12 337.55,-284.12 344.55,-284.12"/>
</g>
<!-- f31&#45;&gt;f30 -->
<g id="edge31" class="edge">
<title>f31&#45;&gt;f30</title>
<path fill="none" stroke="black" d="M315,-317.06C283,-306.69 227.72,-288.77 185.02,-274.93"/>
<polygon fill="black" stroke="black" points="186.21,-271.64 175.62,-271.89 184.05,-278.3 186.21,-271.64"/>
</g>
<!-- f32 -->
<g id="node36" class="node">
<title>f32</title>
<ellipse fill="none" stroke="black" cx="377.05" cy="-398.5" rx="61.59" ry="18"/>
<text text-anchor="middle" x="377.05" y="-393.45" font-family="Times,serif" font-size="14.00">__stdio_close</text>
</g>
<!-- f32&#45;&gt;f31 -->
<g id="edge33" class="edge">
<title>f32&#45;&gt;f31</title>
<path fill="none" stroke="black" d="M368.15,-380.2C364.13,-372.37 359.28,-362.94 354.8,-354.23"/>
<polygon fill="black" stroke="black" points="357.98,-352.76 350.29,-345.47 351.75,-355.96 357.98,-352.76"/>
</g>
<!-- f33 -->
<g id="node37" class="node">
<title>f33</title>
<ellipse fill="none" stroke="black" cx="585.05" cy="-254.5" rx="34.46" ry="18"/>
<text text-anchor="middle" x="585.05" y="-249.45" font-family="Times,serif" font-size="14.00">writev</text>
</g>
<!-- f33&#45;&gt;f23 -->
<g id="edge34" class="edge">
<title>f33&#45;&gt;f23</title>
<path fill="none" stroke="black" d="M584.8,-236.2C584.7,-228.91 584.58,-220.23 584.46,-212.04"/>
<polygon fill="black" stroke="black" points="587.96,-212.07 584.32,-202.12 580.96,-212.17 587.96,-212.07"/>
</g>
<!-- f34 -->
<g id="node38" class="node">
<title>f34</title>
<ellipse fill="none" stroke="black" cx="594.05" cy="-326.5" rx="61.59" ry="18"/>
<text text-anchor="middle" x="594.05" y="-321.45" font-family="Times,serif" font-size="14.00">__stdio_write</text>
</g>
<!-- f34&#45;&gt;f33 -->
<g id="edge35" class="edge">
<title>f34&#45;&gt;f33</title>
<path fill="none" stroke="black" d="M591.83,-308.2C590.88,-300.82 589.75,-292.02 588.68,-283.75"/>
<polygon fill="black" stroke="black" points="592.19,-283.58 587.44,-274.11 585.25,-284.47 592.19,-283.58"/>
</g>
<!-- f35 -->
<g id="node39" class="node">
<title>f35</title>
<ellipse fill="none" stroke="black" cx="762.05" cy="-326.5" rx="40.09" ry="18"/>
<text text-anchor="middle" x="762.05" y="-321.45" font-family="Times,serif" font-size="14.00">__isatty</text>
</g>
<!-- f35&#45;&gt;f21 -->
<g id="edge36" class="edge">
<title>f35&#45;&gt;f21</title>
<path fill="none" stroke="black" d="M773.19,-308.91C778.61,-300.84 785.26,-290.93 791.36,-281.85"/>
<polygon fill="black" stroke="black" points="794.15,-283.97 796.82,-273.71 788.34,-280.06 794.15,-283.97"/>
</g>
<!-- f36 -->
<g id="node40" class="node">
<title>f36</title>
<ellipse fill="none" stroke="black" cx="688.05" cy="-398.5" rx="66.19" ry="18"/>
<text text-anchor="middle" x="688.05" y="-393.45" font-family="Times,serif" font-size="14.00">__stdout_write</text>
</g>
<!-- f36&#45;&gt;f34 -->
<g id="edge38" class="edge">
<title>f36&#45;&gt;f34</title>
<path fill="none" stroke="black" d="M666.25,-381.26C653.91,-372.08 638.28,-360.44 624.73,-350.34"/>
<polygon fill="black" stroke="black" points="627.06,-347.72 616.95,-344.55 622.88,-353.33 627.06,-347.72"/>
</g>
<!-- f36&#45;&gt;f35 -->
<g id="edge37" class="edge">
<title>f36&#45;&gt;f35</title>
<path fill="none" stroke="black" d="M705.59,-380.91C715,-372 726.77,-360.87 737.12,-351.08"/>
<polygon fill="black" stroke="black" points="739.44,-353.7 744.3,-344.29 734.63,-348.62 739.44,-353.7"/>
</g>
<!-- f37 -->
<g id="node41" class="node">
<title>f37</title>
<ellipse fill="none" stroke="black" cx="1030.05" cy="-326.5" rx="39.07" ry="18"/>
<text text-anchor="middle" x="1030.05" y="-321.45" font-family="Times,serif" font-size="14.00">__lseek</text>
</g>
<!-- f37&#45;&gt;f22 -->
<g id="edge39" class="edge">
<title>f37&#45;&gt;f22</title>
<path fill="none" stroke="black" d="M1059.74,-314.56C1089.34,-303.66 1135.35,-286.71 1170.5,-273.76"/>
<polygon fill="black" stroke="black" points="1171.44,-277.14 1179.61,-270.4 1169.02,-270.57 1171.44,-277.14"/>
</g>
<!-- f38 -->
<g id="node42" class="node">
<title>f38</title>
<ellipse fill="none" stroke="black" cx="898.05" cy="-398.5" rx="59.03" ry="18"/>
<text text-anchor="middle" x="898.05" y="-393.45" font-family="Times,serif" font-size="14.00">__stdio_seek</text>
</g>
<!-- f38&#45;&gt;f37 -->
<g id="edge40" class="edge">
<title>f38&#45;&gt;f37</title>
<path fill="none" stroke="black" d="M926.69,-382.31C946.76,-371.67 973.71,-357.38 995.05,-346.06"/>
<polygon fill="black" stroke="black" points="996.49,-349.26 1003.69,-341.48 993.21,-343.07 996.49,-349.26"/>
</g>
<!-- table0_(iii)i&#45;&gt;f34 -->
<g id="edge73" class="edge">
<title>table0_(iii)i&#45;&gt;f34</title>
<path fill="none" stroke="purple" d="M594.93,-452.09C594.76,-428.11 594.45,-384.64 594.25,-355.92"/>
<polygon fill="purple" stroke="purple" points="597.75,-356.1 594.18,-346.12 590.75,-356.15 597.75,-356.1"/>
</g>
<!-- table0_(iii)i&#45;&gt;f36 -->
<g id="edge75" class="edge">
<title>table0_(iii)i&#45;&gt;f36</title>
<path fill="none" stroke="purple" d="M618.04,-452.2C629.9,-443.27 644.53,-432.26 657.34,-422.61"/>
<polygon fill="purple" stroke="purple" points="659.19,-425.6 665.08,-416.79 654.98,-420.01 659.19,-425.6"/>
</g>
<!-- table0_(iIi)I&#45;&gt;f38 -->
<g id="edge76" class="edge">
<title>table0_(iIi)I&#45;&gt;f38</title>
<path fill="none" stroke="purple" d="M544.58,-452.13C549.14,-449.16 554.08,-446.42 559.05,-444.5 565.39,-442.05 736,-420.09 832.71,-407.78"/>
<polygon fill="purple" stroke="purple" points="833.15,-411.25 842.62,-406.52 832.26,-404.31 833.15,-411.25"/>
</g>
<!-- f42 -->
<g id="node47" class="node">
<title>f42</title>
<ellipse fill="none" stroke="black" cx="890.05" cy="-547" rx="46.75" ry="18"/>
<text text-anchor="middle" x="890.05" y="-541.95" font-family="Times,serif" font-size="14.00">__fwritex</text>
</g>
<!-- f42&#45;&gt;table0_(iii)i -->
<g id="edge45" class="edge">
<title>f42&#45;&gt;table0_(iii)i</title>
<path fill="none" stroke="purple" d="M851.79,-536.34C795.2,-522.05 689.8,-495.43 633.25,-481.15"/>
<polygon fill="purple" stroke="purple" points="634.31,-477.8 623.76,-478.75 632.6,-484.59 634.31,-477.8"/>
</g>
<!-- f42&#45;&gt;f41 -->
<g id="edge44" class="edge">
<title>f42&#45;&gt;f41</title>
<path fill="none" stroke="black" d="M925.52,-534.94C932.32,-532.9 939.39,-530.84 946.05,-529 960.18,-525.09 964.4,-526.35 978.05,-521 997.71,-513.29 1018.44,-502.12 1035.04,-492.34"/>
<polygon fill="black" stroke="black" points="1036.74,-495.41 1043.5,-487.25 1033.13,-489.41 1036.74,-495.41"/>
</g>
<!-- f56 -->
<g id="node48" class="node">
<title>f56</title>
<ellipse fill="none" stroke="black" cx="925.05" cy="-470.5" rx="43.67" ry="18"/>
<text text-anchor="middle" x="925.05" y="-465.45" font-family="Times,serif" font-size="14.00">memcpy</text>
</g>
<!-- f42&#45;&gt;f56 -->
<g id="edge46" class="edge">
<title>f42&#45;&gt;f56</title>
<path fill="none" stroke="black" d="M897.99,-529.09C902.17,-520.2 907.4,-509.08 912.14,-498.99"/>
<polygon fill="black" stroke="black" points="915.29,-500.51 916.38,-489.97 908.96,-497.53 915.29,-500.51"/>
</g>
<!-- f43 -->
<g id="node49" class="node">
<title>f43</title>
<ellipse fill="none" stroke="black" cx="1068.05" cy="-547" rx="32.93" ry="18"/>
<text text-anchor="middle" x="1068.05" y="-541.95" font-family="Times,serif" font-size="14.00">fwrite</text>
</g>
<!-- f43&#45;&gt;table0_(iii)i -->
<g id="edge48" class="edge">
<title>f43&#45;&gt;table0_(iii)i</title>
<path fill="none" stroke="purple" d="M1043.62,-534.53C1037.96,-532.32 1031.89,-530.29 1026.05,-529 959.14,-514.16 940.14,-528.82 872.05,-521 786.14,-511.13 686.6,-491.24 633.36,-479.91"/>
<polygon fill="purple" stroke="purple" points="634.4,-476.55 623.89,-477.88 632.93,-483.4 634.4,-476.55"/>
</g>
<!-- f43&#45;&gt;f41 -->
<g id="edge47" class="edge">
<title>f43&#45;&gt;f41</title>
<path fill="none" stroke="black" d="M1068.05,-528.72C1068.05,-520.32 1068.05,-509.99 1068.05,-500.43"/>
<polygon fill="black" stroke="black" points="1071.55,-500.46 1068.05,-490.46 1064.55,-500.46 1071.55,-500.46"/>
</g>
<!-- f43&#45;&gt;f56 -->
<g id="edge49" class="edge">
<title>f43&#45;&gt;f56</title>
<path fill="none" stroke="black" d="M1042.65,-535C1033.26,-530.79 1022.59,-525.84 1013.05,-521 994.8,-511.74 974.89,-500.63 958.63,-491.28"/>
<polygon fill="black" stroke="black" points="960.75,-488.46 950.34,-486.48 957.24,-494.52 960.75,-488.46"/>
</g>
<!-- f44 -->
<g id="node50" class="node">
<title>f44</title>
<ellipse fill="none" stroke="black" cx="877.05" cy="-619" rx="40.09" ry="18"/>
<text text-anchor="middle" x="877.05" y="-613.95" font-family="Times,serif" font-size="14.00">dummy</text>
</g>
<!-- f45 -->
<g id="node51" class="node">
<title>f45</title>
<ellipse fill="none" stroke="black" cx="877.05" cy="-691" rx="44.7" ry="18"/>
<text text-anchor="middle" x="877.05" y="-685.95" font-family="Times,serif" font-size="14.00">__lctrans</text>
</g>
<!-- f45&#45;&gt;f44 -->
<g id="edge50" class="edge">
<title>f45&#45;&gt;f44</title>
<path fill="none" stroke="black" d="M877.05,-672.7C877.05,-665.41 877.05,-656.73 877.05,-648.54"/>
<polygon fill="black" stroke="black" points="880.55,-648.62 877.05,-638.62 873.55,-648.62 880.55,-648.62"/>
</g>
<!-- f46 -->
<g id="node52" class="node">
<title>f46</title>
<ellipse fill="none" stroke="black" cx="955.05" cy="-763" rx="38.04" ry="18"/>
<text text-anchor="middle" x="955.05" y="-757.95" font-family="Times,serif" font-size="14.00">strerror</text>
</g>
<!-- f46&#45;&gt;f45 -->
<g id="edge51" class="edge">
<title>f46&#45;&gt;f45</title>
<path fill="none" stroke="black" d="M938.13,-746.81C927.92,-737.65 914.69,-725.78 903.16,-715.43"/>
<polygon fill="black" stroke="black" points="905.66,-712.97 895.88,-708.9 900.99,-718.18 905.66,-712.97"/>
</g>
<!-- f47 -->
<g id="node53" class="node">
<title>f47</title>
<ellipse fill="none" stroke="black" cx="630.05" cy="-691" rx="44.19" ry="18"/>
<text text-anchor="middle" x="630.05" y="-685.95" font-family="Times,serif" font-size="14.00">wcrtomb</text>
</g>
<!-- f48 -->
<g id="node54" class="node">
<title>f48</title>
<ellipse fill="none" stroke="black" cx="630.05" cy="-763" rx="41.12" ry="18"/>
<text text-anchor="middle" x="630.05" y="-757.95" font-family="Times,serif" font-size="14.00">wctomb</text>
</g>
<!-- f48&#45;&gt;f47 -->
<g id="edge52" class="edge">
<title>f48&#45;&gt;f47</title>
<path fill="none" stroke="black" d="M630.05,-744.7C630.05,-737.41 630.05,-728.73 630.05,-720.54"/>
<polygon fill="black" stroke="black" points="633.55,-720.62 630.05,-710.62 626.55,-720.62 633.55,-720.62"/>
</g>
<!-- f49 -->
<g id="node55" class="node">
<title>f49</title>
<ellipse fill="none" stroke="black" cx="851.05" cy="-763" rx="30.37" ry="18"/>
<text text-anchor="middle" x="851.05" y="-757.95" font-family="Times,serif" font-size="14.00">frexp</text>
</g>
<!-- f49&#45;&gt;f49 -->
<g id="edge53" class="edge">
<title>f49&#45;&gt;f49</title>
<path fill="none" stroke="black" d="M873.44,-775.66C886.82,-778.47 899.42,-774.25 899.42,-763 899.42,-755.09 893.19,-750.66 884.84,-749.7"/>
<polygon fill="black" stroke="black" points="884.74,-746.2 874.95,-750.26 885.13,-753.19 884.74,-746.2"/>
</g>
<!-- f50 -->
<g id="node56" class="node">
<title>f50</title>
<ellipse fill="none" stroke="black" cx="1068.05" cy="-619" rx="29.34" ry="18"/>
<text text-anchor="middle" x="1068.05" y="-613.95" font-family="Times,serif" font-size="14.00">fputs</text>
</g>
<!-- f50&#45;&gt;f43 -->
<g id="edge55" class="edge">
<title>f50&#45;&gt;f43</title>
<path fill="none" stroke="black" d="M1068.05,-600.7C1068.05,-593.41 1068.05,-584.73 1068.05,-576.54"/>
<polygon fill="black" stroke="black" points="1071.55,-576.62 1068.05,-566.62 1064.55,-576.62 1071.55,-576.62"/>
</g>
<!-- f58 -->
<g id="node57" class="node">
<title>f58</title>
<ellipse fill="none" stroke="black" cx="986.05" cy="-547" rx="31.39" ry="18"/>
<text text-anchor="middle" x="986.05" y="-541.95" font-family="Times,serif" font-size="14.00">strlen</text>
</g>
<!-- f50&#45;&gt;f58 -->
<g id="edge54" class="edge">
<title>f50&#45;&gt;f58</title>
<path fill="none" stroke="black" d="M1051.46,-603.83C1039.97,-594.03 1024.48,-580.8 1011.45,-569.68"/>
<polygon fill="black" stroke="black" points="1013.93,-567.2 1004.05,-563.37 1009.39,-572.52 1013.93,-567.2"/>
</g>
<!-- f52&#45;&gt;f57 -->
<g id="edge64" class="edge">
<title>f52&#45;&gt;f57</title>
<path fill="none" stroke="black" d="M1000.92,-826.2C1027.13,-819.14 1057.92,-805.85 1074.05,-781 1082.77,-767.58 1080.31,-759.72 1074.05,-745 1068.89,-732.85 1059.43,-722.14 1049.79,-713.58"/>
<polygon fill="black" stroke="black" points="1052.12,-710.97 1042.17,-707.31 1047.67,-716.37 1052.12,-710.97"/>
</g>
<!-- f52&#45;&gt;f42 -->
<g id="edge59" class="edge">
<title>f52&#45;&gt;f42</title>
<path fill="none" stroke="black" d="M905.22,-829.72C872.84,-824.05 832.92,-810.99 812.05,-781 790.53,-750.07 764.52,-720.95 828.05,-601 834.63,-588.58 845.42,-577.83 856.17,-569.32"/>
<polygon fill="black" stroke="black" points="857.93,-572.37 863.88,-563.6 853.77,-566.74 857.93,-572.37"/>
</g>
<!-- f52&#45;&gt;f46 -->
<g id="edge61" class="edge">
<title>f52&#45;&gt;f46</title>
<path fill="none" stroke="black" d="M955.05,-816.7C955.05,-809.41 955.05,-800.73 955.05,-792.54"/>
<polygon fill="black" stroke="black" points="958.55,-792.62 955.05,-782.62 951.55,-792.62 958.55,-792.62"/>
</g>
<!-- f52&#45;&gt;f48 -->
<g id="edge63" class="edge">
<title>f52&#45;&gt;f48</title>
<path fill="none" stroke="black" d="M908.67,-826.56C854.42,-817.47 762.11,-800.85 684.05,-781 680.48,-780.09 676.8,-779.08 673.11,-778.03"/>
<polygon fill="black" stroke="black" points="674.18,-774.7 663.6,-775.19 672.18,-781.4 674.18,-774.7"/>
</g>
<!-- f52&#45;&gt;f49 -->
<g id="edge65" class="edge">
<title>f52&#45;&gt;f49</title>
<path fill="none" stroke="black" d="M931.97,-818.46C916.56,-808.09 896.19,-794.38 879.74,-783.31"/>
<polygon fill="black" stroke="black" points="882.08,-780.67 871.83,-777.99 878.17,-786.47 882.08,-780.67"/>
</g>
<!-- f53 -->
<g id="node59" class="node">
<title>f53</title>
<ellipse fill="none" stroke="black" cx="1162.05" cy="-763" rx="41.12" ry="18"/>
<text text-anchor="middle" x="1162.05" y="-757.95" font-family="Times,serif" font-size="14.00">pop_arg</text>
</g>
<!-- f52&#45;&gt;f53 -->
<g id="edge60" class="edge">
<title>f52&#45;&gt;f53</title>
<path fill="none" stroke="black" d="M991.11,-821.81C1026.85,-809.72 1081.59,-791.21 1119.46,-778.4"/>
<polygon fill="black" stroke="black" points="1120.35,-781.8 1128.71,-775.28 1118.11,-775.16 1120.35,-781.8"/>
</g>
<!-- f60 -->
<g id="node60" class="node">
<title>f60</title>
<ellipse fill="none" stroke="black" cx="729.05" cy="-763" rx="36" ry="18"/>
<text text-anchor="middle" x="729.05" y="-757.95" font-family="Times,serif" font-size="14.00">strnlen</text>
</g>
<!-- f52&#45;&gt;f60 -->
<g id="edge62" class="edge">
<title>f52&#45;&gt;f60</title>
<path fill="none" stroke="black" d="M916.13,-822.71C880.39,-812.24 826,-796.05 779.05,-781 775.75,-779.94 772.34,-778.83 768.92,-777.69"/>
<polygon fill="black" stroke="black" points="770.11,-774.4 759.51,-774.54 767.88,-781.04 770.11,-774.4"/>
</g>
<!-- f54 -->
<g id="node61" class="node">
<title>f54</title>
<ellipse fill="none" stroke="black" cx="1038.05" cy="-763" rx="27" ry="18"/>
<text text-anchor="middle" x="1038.05" y="-757.95" font-family="Times,serif" font-size="14.00">pad</text>
</g>
<!-- f52&#45;&gt;f54 -->
<g id="edge66" class="edge">
<title>f52&#45;&gt;f54</title>
<path fill="none" stroke="black" d="M973.89,-818.12C985.51,-808.31 1000.55,-795.62 1013.15,-785"/>
<polygon fill="black" stroke="black" points="1015.27,-787.79 1020.66,-778.67 1010.76,-782.44 1015.27,-787.79"/>
</g>
<!-- f55 -->
<g id="node62" class="node">
<title>f55</title>
<ellipse fill="none" stroke="black" cx="1192.05" cy="-691" rx="114.3" ry="18"/>
<text text-anchor="middle" x="1192.05" y="-685.95" font-family="Times,serif" font-size="14.00">long_double_not_supported</text>
</g>
<!-- f53&#45;&gt;f55 -->
<g id="edge67" class="edge">
<title>f53&#45;&gt;f55</title>
<path fill="none" stroke="black" d="M1169.31,-745.05C1172.58,-737.43 1176.52,-728.23 1180.2,-719.65"/>
<polygon fill="black" stroke="black" points="1183.33,-721.24 1184.05,-710.67 1176.9,-718.48 1183.33,-721.24"/>
</g>
<!-- f59 -->
<g id="node63" class="node">
<title>f59</title>
<ellipse fill="none" stroke="black" cx="734.05" cy="-691" rx="42.14" ry="18"/>
<text text-anchor="middle" x="734.05" y="-685.95" font-family="Times,serif" font-size="14.00">memchr</text>
</g>
<!-- f60&#45;&gt;f59 -->
<g id="edge72" class="edge">
<title>f60&#45;&gt;f59</title>
<path fill="none" stroke="black" d="M730.29,-744.7C730.81,-737.41 731.43,-728.73 732.01,-720.54"/>
<polygon fill="black" stroke="black" points="735.5,-720.84 732.72,-710.61 728.52,-720.34 735.5,-720.84"/>
</g>
<!-- f54&#45;&gt;f57 -->
<g id="edge68" class="edge">
<title>f54&#45;&gt;f57</title>
<path fill="none" stroke="black" d="M1033.45,-745.05C1031.43,-737.6 1029,-728.64 1026.71,-720.22"/>
<polygon fill="black" stroke="black" points="1030.13,-719.47 1024.14,-710.74 1023.38,-721.3 1030.13,-719.47"/>
</g>
<!-- f54&#45;&gt;f42 -->
<g id="edge69" class="edge">
<title>f54&#45;&gt;f42</title>
<path fill="none" stroke="black" d="M1017.83,-750.6C1002.64,-741.15 982.26,-726.47 969.05,-709 937.89,-667.79 950.27,-646.64 926.05,-601 921.18,-591.82 915.07,-582.28 909.27,-573.87"/>
<polygon fill="black" stroke="black" points="912.22,-571.97 903.58,-565.83 906.5,-576.01 912.22,-571.97"/>
</g>
<!-- f55&#45;&gt;f25 -->
<g id="edge71" class="edge">
<title>f55&#45;&gt;f25</title>
<path fill="none" stroke="black" d="M1237.69,-674.03C1273.52,-661.48 1322.75,-644.26 1355.89,-632.66"/>
<polygon fill="black" stroke="black" points="1356.76,-636.06 1365.04,-629.45 1354.45,-629.45 1356.76,-636.06"/>
</g>
<!-- f55&#45;&gt;f50 -->
<g id="edge70" class="edge">
<title>f55&#45;&gt;f50</title>
<path fill="none" stroke="black" d="M1162.35,-673.23C1143.16,-662.4 1118.24,-648.33 1098.84,-637.38"/>
<polygon fill="black" stroke="black" points="1100.72,-634.42 1090.29,-632.56 1097.28,-640.52 1100.72,-634.42"/>
</g>
<!-- table0_(i)i -->
<g id="node64" class="node">
<title>table0_(i)i</title>
<polygon fill="none" stroke="black" points="478.05,-488.5 424.05,-488.5 424.05,-452.5 478.05,-452.5 478.05,-488.5"/>
<text text-anchor="middle" x="451.05" y="-465.45" font-family="Times,serif" font-size="14.00">(i)i</text>
</g>
<!-- table0_(i)i&#45;&gt;f32 -->
<g id="edge74" class="edge">
<title>table0_(i)i&#45;&gt;f32</title>
<path fill="none" stroke="purple" d="M432.76,-452.2C423.76,-443.68 412.75,-433.26 402.9,-423.95"/>
<polygon fill="purple" stroke="purple" points="405.39,-421.49 395.72,-417.16 400.58,-426.58 405.39,-421.49"/>
</g>
<!-- export8 -->
<g id="node72" class="node">
<title>export8</title>
<polygon fill="none" stroke="black" points="1653.05,-1285 1599.05,-1285 1599.05,-1249 1653.05,-1249 1653.05,-1285"/>
<text text-anchor="middle" x="1626.05" y="-1261.95" font-family="Times,serif" font-size="14.00">_start</text>
</g>
<!-- export8&#45;&gt;f8 -->
<g id="edge84" class="edge">
<title>export8&#45;&gt;f8</title>
<path fill="none" stroke="red" d="M1626.05,-1248.7C1626.05,-1241.41 1626.05,-1232.73 1626.05,-1224.54"/>
<polygon fill="red" stroke="red" points="1629.55,-1224.62 1626.05,-1214.62 1622.55,-1224.62 1629.55,-1224.62"/>
</g>
</g>
</svg>
